<?xml version="1.0" encoding="utf-8"?>
<!-- Generator: Adobe Illustrator 19.1.0, SVG Export Plug-In . SVG Version: 6.00 Build 0)  -->
<svg version="1.1" id="Layer_1" xmlns="http://www.w3.org/2000/svg" xmlns:xlink="http://www.w3.org/1999/xlink" x="0px" y="0px"
	 viewBox="0 0 2000 2000" style="enable-background:new 0 0 2000 2000;" xml:space="preserve">
<style type="text/css">
	.st0{fill:#383838;}
	.st1{fill:#3F403F;}
</style>
<g>
	<line class="st0" x1="228.9" y1="84.9" x2="228.9" y2="1831.3"/>
	<g>
		<g>
			<g>
				<g>
					<path class="st1" d="M365.3,1829.3c-2.1,2.6,21.4,1.7,25.6,2C385.7,1827,359.2,1829.4,365.3,1829.3z"/>
					<polygon class="st1" points="312,1786.7 321.6,1787.5 298.1,1781.2 					"/>
					<path class="st1" d="M312.4,1746.9c-40,3.8,6.5,14.4-7.8,21.5l-9.1,1.2l32.2,3.2C322.6,1764.2,301.3,1753,312.4,1746.9z"/>
					<path class="st1" d="M398.9,1725.7c-15.6,1.3-13.4-4.6-4.9,4.9c1.7-0.5,2.7-0.6,3.9-0.9
						C397.7,1728.9,397.8,1727.7,398.9,1725.7z"/>
					<path class="st1" d="M398,1729.8C399.1,1733.9,411,1727,398,1729.8L398,1729.8z"/>
					<path class="st1" d="M389.1,1710.4l13.9,5.5c9.2-1.2,11.3-6.1,17.9-4.2C413.3,1706,404.1,1707.2,389.1,1710.4z"/>
					<path class="st1" d="M359.9,1705.2l5.9,2.9C369.6,1707.5,370.9,1706.8,359.9,1705.2z"/>
					<path class="st1" d="M378.2,1714.1l-12.4-6.1c-6.5,0.8-19.4,0.9,4.5,2.8C358.4,1710.3,369.8,1711.5,378.2,1714.1z"/>
					<path class="st1" d="M372.1,1717.5c-8.7,3.1-14.2,7.1-28,1.6C349.6,1729.6,377.7,1728.1,372.1,1717.5z"/>
					<path class="st1" d="M271.1,1744.9l-11.7,4.1l13.4,3.6C266.1,1750.8,283.6,1744.6,271.1,1744.9z"/>
					<path class="st1" d="M409.8,1676c-8.5-0.3-22.7,1.9-33.5,2.3l9.8,4.1C391.8,1680.2,397.1,1676.3,409.8,1676z"/>
					<path class="st1" d="M376.2,1678.3l-14.6-6.1C359.9,1677.6,366.8,1678.6,376.2,1678.3z"/>
					<polygon class="st1" points="315.5,1704.2 346.2,1714.2 315.1,1702.2 					"/>
					<polygon class="st1" points="410.8,1652.7 430.5,1656.2 400.8,1650 					"/>
					<path class="st1" d="M407.4,1637.2c16.3,2.6,27.6-3.5,37.6-0.8c-2.9-4.2-16.9-7.8-29.5-11
						C422.5,1628.8,420.7,1632.5,407.4,1637.2z"/>
					<path class="st1" d="M397.1,1620c3.9,1.7,10.9,3.5,18.3,5.4C411.7,1623.6,406.3,1621.8,397.1,1620z"/>
					<path class="st1" d="M365.8,1661.8c5.1-0.5,18.6-1.4,24.3-4.8l-23.9,2.4C366,1660.1,365.9,1660.9,365.8,1661.8z"/>
					<path class="st1" d="M365.4,1659.5l0.8-0.1c0.5-2.6,1.1-4.4,1.3-5.2C367.3,1654.8,366.7,1656.4,365.4,1659.5z"/>
					<path class="st1" d="M365.7,1662.4c0.1-0.2,0.1-0.4,0.1-0.6C363.5,1662,362.7,1662.1,365.7,1662.4z"/>
					<path class="st1" d="M337.2,1688.2c-13.4-3.6-27.7-11.1-48.1-3.8C305.4,1686.9,317,1682.8,337.2,1688.2z"/>
					<path class="st1" d="M335.8,1665.4l-5.5,6.5c6.3-0.1,15.5-1.3,22.2,0.5L335.8,1665.4z"/>
					<polygon class="st1" points="328.2,1662.2 335.8,1665.4 337.8,1663 					"/>
					<path class="st1" d="M374.8,1631.1c-10.4-2.8-11.3-5.9-13-9.3c-4.7,3.7-7.2,7.5-7.2,11.2
						C362.1,1633.5,375.6,1635.1,374.8,1631.1z"/>
					<path class="st1" d="M368.1,1644.9c-0.5-0.2-0.8-0.4-1.4-0.6C364.7,1644.6,364.1,1644.9,368.1,1644.9z"/>
					<path class="st1" d="M362,1587.7c-1.3,0.2-3,0.4-4.4,0.5c1.4,0,2.7,0.1,4.1,0.1L362,1587.7z"/>
					<path class="st1" d="M350.1,1633.6c-4.6,2.8,1.2,4.5,8.6,6c-2.4-2.1-4-4.3-4.2-6.7C351.2,1632.7,349,1632.7,350.1,1633.6z"/>
					<path class="st1" d="M386,1610.5c-5,1.5-9.2,3.1-13.2,4.8C380.4,1613.9,392.2,1611,386,1610.5z"/>
					<path class="st1" d="M373.4,1643.3c0.4,0.1,0.8,0.3,1.1,0.4C379.6,1642.8,377,1642.9,373.4,1643.3z"/>
					<path class="st1" d="M373.4,1643.3c-3.4-1.4-9.4-2.6-14.6-3.7c1.9,1.7,4.5,3.3,8,4.6C368.4,1643.9,371,1643.6,373.4,1643.3z"/>
					<path class="st1" d="M208.3,1577.4c22.2,0.5,42.7,7.8,18.9,14.1c16.6,6.2,89.6,2.2,130.4-3.3c-9.7-0.2-18.6-0.2-31.7-6.6
						c-12.1,2.2-28.3,14.2-48.4,8.8c-11.4-8.5,7.8-7,19.6-11.1c-27.6,3.5-40.2-10.8-80.9-8.9l14.3,7.4
						C224.2,1578,214.1,1575.3,208.3,1577.4z"/>
					<path class="st1" d="M355.3,1600.5l2.7,2.6c3.9-3,12.7-5.2,30.1-9.1c-10.8-4.4-19.1-5.3-26.4-5.6l-3.1,13L355.3,1600.5z"/>
					<path class="st1" d="M358.2,1614.9c-24.1-2.1-34.4-8.4-60.5-4.5c1.7,7.7,20.2,5.4,30.6,10c-6-12.5,13.4,3.6,27.1-5.4
						c4.1,2.5,5.4,4.7,6.4,6.7c2.9-2.2,6.6-4.4,11-6.5c-0.5,0.1-1,0.2-1.5,0.3l0.1,0.1c-0.2,0-0.2,0-0.4,0c-3,0.5-4.8,0.7-3.1,0.1
						c-0.3,0-0.4-0.2-0.5-0.3c-3.4-0.1-6.3-0.3-9.1-0.6c5-3.6,6.3-0.6,9.1,0.6c1.2,0,2.3,0.1,3.6,0.2c0.1,0,0.2,0,0.3,0l-13.2-12.5
						C354.7,1605.8,355.4,1609.1,358.2,1614.9z"/>
					<path class="st1" d="M237.1,1677.7c2.1-0.4,3.9-0.4,5.6-0.4C239.8,1676.5,237.8,1676.2,237.1,1677.7z"/>
					<path class="st1" d="M251.7,1672.5c3.4,0.9,13,1.7,10.5,4.6c-7.2,2.6-11.6,0-19.5,0.1c6.4,1.8,17.3,6.2,29,0.6l-3.3-0.9
						c8.3-5,38.4-11.5,41.7-10.6C288.5,1667.9,273,1669.2,251.7,1672.5z"/>
					<path class="st1" d="M298.8,1643.4l-11.8-10.4l-20.9,5.3l12.5-0.3C273.7,1643.9,289.1,1642.6,298.8,1643.4z"/>
					<polygon class="st1" points="374,1586.5 399.4,1587.9 363.5,1581.9 					"/>
					<polygon class="st1" points="370.9,1573 393.1,1573.5 379.7,1569.9 					"/>
					<path class="st1" d="M95.9,809.5l-6.3-3.1C91.6,807.9,93.7,808.8,95.9,809.5z"/>
					<path class="st1" d="M94.4,831.7l10.9,0.5C99.3,831.2,94.9,830.8,94.4,831.7z"/>
					<path class="st1" d="M368.4,1240.7c20.7-4.5,52.8-9.4,27.9-8.9l-24.3,1.4C376.3,1236.3,373.6,1238.7,368.4,1240.7z"/>
					<path class="st1" d="M223.3,1013.1c-2.4,0.4-4.9,0.9-7.4,1.3c8.3,1.1,16,2.1,23.2,3C234.2,1016.2,228.9,1014.7,223.3,1013.1z"
						/>
					<path class="st1" d="M122.8,1010l15.7-5.9C133,1005.4,127.8,1007.3,122.8,1010z"/>
					<path class="st1" d="M70.2,688.5L45.4,685C45.6,690.6,58,688.1,70.2,688.5z"/>
					<path class="st1" d="M362,1434.4c9.5-3.8,13.5-6.9,14.7-9.6C362.7,1429.5,341.7,1433.2,362,1434.4z"/>
					<path class="st1" d="M353.8,818.2c-4.4-1.9-9.4-2.7-14.8-2.6C343.1,817.5,347.8,818.6,353.8,818.2z"/>
					<path class="st1" d="M376.5,1413.7c-2.4,0.7-3.7,1.3-5.7,2c4.1,2.8,7.4,5.6,5.8,9.1C387,1421.4,393.4,1417.5,376.5,1413.7z"/>
					<path class="st1" d="M90.3,249.8c1.1-0.3,1.6-0.7,2.9-1C89.9,248.8,89.7,249.2,90.3,249.8z"/>
					<path class="st1" d="M335.5,122c1.5,1.3,1.5,3.3,1.9,5.2C339,126.3,338.8,124.8,335.5,122z"/>
					<path class="st1" d="M381.5,1518.6C383.1,1521.4,384.2,1519,381.5,1518.6L381.5,1518.6z"/>
					<path class="st1" d="M285.4,1532.5c-2.7-0.6-6.2-1.1-11.8-1.1C279.5,1531.6,283.2,1532,285.4,1532.5z"/>
					<path class="st1" d="M225.3,1385.1c0-0.1,0.1-0.2,0.1-0.2C220.6,1385.8,221.5,1385.6,225.3,1385.1z"/>
					<path class="st1" d="M370.5,1522.9c3-1.1,5.5-2.3,7.2-3.7C375.8,1519.8,373.4,1520.9,370.5,1522.9z"/>
					<path class="st1" d="M381.9,1522.3c-1.1,1-1.7,1.8-2.4,2.5C383.6,1525.2,386.2,1524.8,381.9,1522.3z"/>
					<path class="st1" d="M380.2,1514.6c0.4,1.6-0.8,3.2-2.5,4.6c1.6-0.6,3-0.8,3.8-0.6C381.1,1517.7,380.6,1516.5,380.2,1514.6z"/>
					<path class="st1" d="M155.3,484.9c0.8-0.2,1.3-0.4,2.3-0.6C147.5,481.4,149.1,482.7,155.3,484.9z"/>
					<path class="st1" d="M116.1,1166c0.2,0.1,0.9,0.2,1.2,0.3c0.2-0.1,0.6-0.3,0.9-0.4L116.1,1166z"/>
					<path class="st1" d="M98,1155.7c30.2,4.4,26.5,6.9,20.1,10.2l70.1-3.4L98,1155.7z"/>
					<path class="st1" d="M88.9,756.5l-21.8,7.2c-35.9-8.7-23.5-15.1-54.2-8.3c76.1,1,7.8,28.1,83.8,29.1l-16,4.8
						c0.7-1.4-3.7-1.6-3-2.9c-36.4,9.3,55,6.9,44.2,18.8c-5.8,4.2-16.9,7.1-25.9,4.2l18.8,9.3c-1.5,2.7-14.7,2-13.2-0.6l6.1,14.2
						l-2.2-0.1c11.9,2,30.4,6.6,38.2,8.8c-10.9,3.6-8.1-1.8-17.6-0.9l18.4,7.8c-19.7,3.2-38.8-3.3-36-8.7
						c-75.9,7.3,19.1,6.5-25.2,22.3l-9.6-7.4c-43.1,4.8-27.5,10.6-54.4,18.9c14.1-2,67.8-16.8,86.7-8.2c-5.7,2.4-8.5,5.6,6.8,10.1
						c-27,0-20.4,4.5-18.9,10.1L58,884.7c10.3,6.1,28.6,5.6,44.7,9.2c-3.5,6.8-31.3,8.2-54.7,9.8c-5.7,10.8,44.5-7.5,51.2,5.3
						c-13.7,9,0.9,15.3,22.4,26.1c-12.3,6.3-21.9-1.1-32.2,1.2l28.6,5.6c-0.7,1.4-9.5,0.9-13.9,0.7c11.1,4.7,35.8,0.4,45.5,7.8
						c39.5,2-57.7,15.2-12.9,24.3c-10.2,2.3-22-1.1-35.8-0.4c29.4,12.6,21.4,10.8,60.9,21.1l-23.5,8.8c26.9-6.5,58.7,1.8,84.9,9
						c13-2.3,24.4-4.2,29.8-5.6l19.2,11.5c-5.9,1.4-18.2,0.2-33.1-1.7c3,0.8,5.9,1.5,8.6,2.1c-13.2,4.1-33.9,2-53.9-1
						c7.1-1.4,14.6-2.8,22.1-4.2c-21.8-2.8-45.9-5.5-66.8-4.9c4.1,0.7,7.7,2.2,9.7,3.8c-5.9-0.7-11.2-1.2-14.8-0.9
						c-3.8,0.4,4.2,1.6,13.3,3.5l-39.9,2.6l15.9,0.6l-25,15.1c40.2,10.8,99.4,20.2,115.9,37.3c-29.3-4.3-47.8-0.9-82.5-1.1
						c36.7-4.7-15.6-13.3-8.1-22.1c-3.9,4.6-20.4,3.6-26.2,2.4l33.4,15.8c-28.4-0.4-21.3,3.4-33,7.5c56.1-3.1,37.4,11.8,54.6,18.2
						c-18.8,0.4-38.1-1.1-33.5-9c-42.2,8.7,65.9,11.2,30,19.7c-0.5-1.9,2.4-3-7.1-3.7c16.7,4.5,3.5,15.4-12.9,12.9l-0.4-1.9
						c-6.6,12.7-0.4,38.8,47.2,40.7c-6.2,0.1-57.4-1.7-67-2.4l160.3,22.7c-40.9-2-138.3,5.7-161.4-4.9c-5.8,3-12.6,6.8,1.8,13.2
						c5.8-2.1,59.1-5.2,62.9-2.3c-45.6,7.8-24.4,5.4-63.2,15c8.8-3.1,72.9,0.3,70.9,5.2c-9.6-0.8-63.3,0.4-70-1.4l63,12.2
						c-11.3-3-53.4-0.5-71.2,2.2c12.3-1.3-1.1,10.6,5.1,13.8l14.6-5.2c-9.5,13.8,88.6,13.6,85.3,27.3c-13-1.7-80.1-4.1-88,2.9
						c32.3,3.2,155.1,14.1,180,26.2l-18.4,2.3l21,9.3c-48.5-5.8-150.7-22-190.4-30.8c-14.6,5.2-21.7,1.4-20.1,9.2
						c-17.3,2.7-26.2-4.2-27.2-6.5l-11.2,18c37.7-0.8,37.8,13.7,69.1,13.1l-39-19.5c37.6-0.8,106.9,11.3,100.2,24
						c-15,3.2-67-2.4-79.6-2.2c13,1.7,24.7,12.1,15.6,13.3l-20.1-5.4c-14.2,7.1,49.9,11.6,14,20.1c-2.4,2.9-48.5,8.8-26.2,9.3
						c43-4.8,175.9-5.7,208.1-2.5c-2.9,1-41.1,15.4-62.3,18.8c-33.7,4.8-80.3-7.3-109.2-3.1c10.3,0.2,23,2.9,27,4
						c-8.8,3.1-31.9-1.3-27.2,5.4c38.2,1.1-3.2,13.7,32.3,3.2c10.9,6.6-7.8,7-6.2,14.7c24.7-2.5,83.9,6.9,94.8,13.5
						c-9.7-0.4-22.3,1.1-28.1,1.8c-3.4,13.5-20.8,20.7-21.1,33.2c-9.2,1.2-20.4,7.2-36.9,4.6c6.8,1.8,19.7,3.5,20.6,7.3
						c-33,7.5-5.1-8.6-44.8-2.9c22.2,0.5,30.6,10,44.5,15.5c34.3-1.7,6.6-12.7-7.3-18.3c47.3,0,96.7,9.6,118.6,22.7
						c11.7,10.4-30.5,4.5-23.8,6.3c-8.3,19.6,82.5,16.7,48.4,32.9c-30.1,6.5-59.9,0.3-81.6,1.7c-11.4-8.5,19.1-13,17.9-18.8
						l-14.2,7.1c-10-2.7-17.6-8.4-8.9-11.5c-27,5.4-5.2,33.1-30.2,48.2c10.1,2.7,20.5,7.3,32.6,5.1l-4.2-4.8
						c24.3-4.4,33.6,9,44.9,2.9c17.1,6.4,43.9,13.6,30.2,22.6l-34.3,1.7c10-0.2,20.5-5.9,10-8.4c15.2,3.8-46.5,13.8-1.5,18l23.8-6.3
						c17.3,6.4,53.7,14.4,42.9,22.4c33.9-3.6-3.9-1.8,35.8-7.5c-49.4,4.9,2.1-20.5-49.8-12.5c46-5.8,19.5-10.1,58.8-17.7
						c-11.3,0.2-21.7,2.7-16.1-4c-3.3-0.3-7.5-1-10-1.5c0.3-0.2,0.5-0.3,0.8-0.5c-0.4,0.1-0.9,0.2-1.3,0.4c-1.7-0.3-2-0.3-0.5,0.1
						c-5,1.6-10.9,2.9-17.2,3.4c-26-3.3-25.2-14-38.6-17.6c5.4-4,13,1.7,25.1-0.5l-20.1-5.4c25.2-0.5,41.8-10.6,56.5-1.2l1.1-8.4
						c14.1-5,19.7-11.8,9.1-16c5.4-4-27.8-10.1-8.1-6.6l-15.6-13.3l6.3-0.1c3.2-13.1-41.6-26.9,3.7-41.9c-6.3-4.4-14.1-9-7-16.3
						l21.8-1.4c-7.6-5.7,21.8-17-0.9-19.4c58.5-6.1,12.8-27.4,23.2-37.4l-28.4-0.4c1.6-6.8-6.5-13.4-17.9-21.9l-25.1,0.5
						c-20.6-7.3,17.9-18.8,15.3-30.4c9.6,0.8,7.1,3.7,1.3,5.8c56.7-13.8-41.3-29.2,0.1-41.7c-9.1-3.1-6-5.4,0.3-7.6
						c0.1,0.3,0.5,0.6,1.3,0.8c0.3-0.3,0.4-0.8,0.3-1.3c4.3-1.4,9.3-2.8,13.4-4.3c-6.1,1.3-11.1,2.6-13.5,3.7
						c-0.5-2.4-3.6-6.1-9.9-9.7l27-1.5c-0.4-0.3-0.3-0.5-0.8-0.8c10-3.5-12.8-2.8-33.1-1c-4.4-1.8-9.8-3.5-16.3-4.7
						c43.5-2.9-14.7-9.4,31.8-13.3c-22.6-2.4-17-18-64.7-19.9c6.2-0.1,9.2-1.2,9.5,0.8c5.4-4,10.9-8-2.6-11.6l34.3-1.7l-46.1-8.7
						c20.9-5.3,33-7.5,59.4-2.2c-40.6-12.7-15.3-10.3-55.5-21.1l22.2,0.5c-0.8-3.9-30.5-10-12.2-12.4c42.1-8.6,5.8-42.8,45-65
						c-65.3,4.3,29.3-10.3-21.3-11.2c15.4-1.3,24.1-4.4,37.6-0.8c-15.2-11.3,24.5-17-18.2-24.8c15.5-1.3,22.6,2.4,31.8,1.3
						c-3.3-0.9-13.4-3.6-4.2-4.8c9.2-1.2,13,1.7,19.7,3.5c-2.6-11.6-50.2-12.7-94.8-13.6c21.1-5.9,18.2-8.8-11.1-13
						c14.6-2,29.9-5.4,35.1,1.7c2.1-4,21.4-24.7-14.4-25.1c9.1-1.3,2.7-5.7-1.5-6.7c2.1-9.1,5.4-9.9,2-18.8l-5.9,2.5
						c-43.2-3.5-9.6-7.4-14.8-14.6l4.4,0.2c31.1-16.5-14.9-7.1,20.6-23.4l-26.9,0.9c-57.8-1.5,34.1-14.4,12-23.8l-15.3,3.4
						c-19.8-5.2,78.6-14.4,85.8-19.6c5-1.1,8.1,1.8,11.8,3.4c34.1-13.5-35.2-1.8-43.4-11.8c19-1.9,48.3,2.4,51.8-4.4
						c15.4-3.4-61.6-19.7-25.2-29c-14.6,2-29.2,4.1-40.2-0.6c-5.2-7.2,55.3-19.4,9.2-25.9c4-0.9,7.8-1.3,11.5-1.3
						c-11.9-5.5-19.8-17.8-44.8-21.2c92.8-5.1-45.1-34.1,40.4-34l-4.6-16.9l8.7,0.4c5.7-10.8-14.8-14.6-35.4-18.4
						c5.8-2.5,13.8-0.7,18.3-0.5c17.3-15.8,13.6-17.3-29-30.6l27.8-1.4c-16.1-3.6,43.5-22.8,11.2-38.3c3.1,0.2,8.5,0.5,12.4,1.7
						c-32.6-17.4,77-41.7-24.1-48.1L295.1,597c-7.9,14.9-43.9-2.2-60.7,3.9c-5.9-5.8,30.5-15.1,35.7-7.9l-5.1,1.1
						c52.7,2.6,18.7-18.5,54.5-18.1c-2.6-29.2,26.6-57.8,28.8-85.2l-41,3.2l2.4-9.6c9.5-2.5,32-3.4,30.4,3.5
						c23.2-3.6-19.4-11.4-28.4-11.6c16.6-13.3,47.8,5.2,48.8,1.1l-3.1-5.6l-4.8,1.3c-16.7-4.5-34.5-4.9-32.5-13.1
						c8.2-5.2,25.3-2.7,26.8-4.7c2.9,0,4.3-0.7,1.2-3.1l3.5-12l-32.3,4.8c-15.9-5.3,1.7-11.3-34.9-5.8c56.5-8.2,20.3-44.9,37.8-49.9
						c-23.6-7.5-23.2-14.9-20.3-24c-6.7,2.3-43.1,3.6-38.6-4.3c75,2.9,32.6-14.4,86.5-20.8c-35.8,5.7-8.8-22.4-59.7-13.5
						c6.1-6.6,28.1-0.4,45.7-5.4c-29.1-15.7,18.9-34.5,9.1-53.9c-9.8-0.3-24.9,2.9-39.6-1.2l49.2-10.2c-4.8-3.8-56.9-3.5-22.7-10.5
						c-8.3,1-20.8,2.5-23.9-0.1c48-37.9-39.3-77.5,50.9-116c-19.1,5.2-21,1.7-21.7-2.2c-4.6,2.6-24.3-0.1-37.7,0.4l37.1-16.1
						c-37-2.9-2.5-17.3-37.9-19l6.4,5.1c-41.8-6.8-92.9,9.5-146.6,8.5c47.5,7.6-70.4,20-2.4,32.5c-10.9,2.8-17.3-2.3-29.7-0.9
						c23,3.2,27.8,7,17.5,14.1l-5.7-0.8c5.6,19.9-17.1,28.4-32.2,50.7l26.5-1.7c-3.6,4.8-11.9,5.8-18.5,8.1
						c40.2,5.5,2.3-13.5,46.6-8.5c-54,6.4-0.8,33.8-62.2,38.1c-0.3,7.4,30.7-2.2,30.4,5.2l-16.6,2l21.4,1.9
						c-3.5,4.8-24.3,7.3-38.3,7.5c1.7-1.2-3.9-3.3-5.1-4.6c-19.5,6.3,6.7,17.7,0.3,19.8l10.2-7.1c15.5,20.1-6.3,44.7,27.5,64.2
						l12.5-1.5c23.2,14.9-13.8,11.9-3,28.2l-3-0.6c12.5,3.3,18.8,7.6,17.3,12.1c-14.7-4.1-28.5,7.8-44.7,2.3
						c24.9,16.1,19.5,8,66,18.6l-20.8,2.5c18.8,3.6,28.7,3.9,34.1,12.1c-17.8-6.7-31.6,5.2-55.2-2.3c-45.4,17.1,45.9,25.4-20.6,33.2
						c57.5,7.9,31.9-14.8,44.2-10.4c18.8-3.7,43,6.5,37.2,11.8c-1.3,5.5-73.5,9.3-72.4,23c0.3-1.4-4.1-1.5-3.8-2.8
						c-14.7,5.1,19.9,10.1-4,16.4c34.8,3.5-2,8.2,42.3,9.2l-10.3-12.6c11.6,7.1,63.5,13.8,38.3,25.6c-8.9-0.9-20.7-4.4-27.3-6.8
						c-13.1,3.4,8.7,6.6-4.8,10.2c-44.4-1-9.7-15.3-43.5-23c-18.7,3.7,32.1,14.5-15.9,10.6c61.1,5.5-7.7,13.5,38.9,22.8l-26.6-0.6
						c4.2,1.5,16.7,4.5,16.1,7.2l-34.5-4.9c29.4,7.5-25.7,14.5-9.7,21.7c-0.8-15.1,32-3.4,51.4-9.8c35.6,18.7-69.5,10.7-56.8,31.6
						c-3.7-2.8,16-10.6,28.3-6.2c-5.5,4-15.7,9.2-29.6,11.7c5.5,13.8,27.3-2.1,43.7,3.8c-32.4,4.7,13.2,6.8,23.5,12.9l-27,0
						c-17.3,15.8,56.3,4.2,35.4,18.4l-37.5-6l9.7,7.4l-30.7-1.5c22.8,8.1,16.9,10.6,8.3,18.5c19-1.8,49,1,49.9,8
						c-16,4.8-25.7-2.7-21.8,7.2c-16.9-2.2-38.1-4.7-13.2-9c-8.8-0.4-17-2.2-25.7-2.7c-18.5,5.1-4.2,12.9-4,16.5
						c1-1.4,2.5-3,6.3-3.9l37.4,14.4c-10.1,2.3-18.3,0.5-26.3-1.3c2.9,2.9,15.3,4.9,17.7,9.2c-22-1.1-44.6-0.8-55-6.9L83.8,655
						c-9.5,0.9-26.2,7-34.3,5.2c-12.9,7.6,42.6,18.6,25.6,28.7c4.3,0.5,8.3,1.6,11.5,3.7c-5,9.4-31.9,17.8-1.8,29L45.3,728
						c8.9,8.8,49.6-8.6,64.5,6c12.5,10.3-33.6,3.9-44.5,7.5c19.9,5.1,60.2,14.1,28.2,23.6C86,761.9,91.9,759.4,88.9,756.5z
						 M106.4,864.6c-5.7-2.1-23.2-6.3-7.2-7.8C130.1,859.2,115.3,861.1,106.4,864.6z M171.4,1029.1c-8.9-1.6-4.5-4,5.7-6.7
						C179.4,1024.4,178.3,1026.6,171.4,1029.1z M359.5,1487.1c-0.4-0.1-0.8-0.2-1.3-0.2C368.7,1482.2,364.6,1483.9,359.5,1487.1z
						 M347.8,1496.8c3.8,1,7.5,0.9,11.3,0.5c-6.8-0.7-7.3-2.9-5.4-5.3C346.6,1492.7,341.7,1493.9,347.8,1496.8z M337.2,454.3
						l-7.1,1.9C322.3,451.9,329.3,453.1,337.2,454.3z"/>
					<path class="st1" d="M134.5,1010.4c4.6-0.6,9.6-0.8,14.7-0.9C144.6,1008.7,139.3,1008.7,134.5,1010.4z"/>
					<path class="st1" d="M74.7,689.2c0.2-0.1,0.1-0.2,0.3-0.3c-1.6-0.2-3.3-0.3-4.9-0.3L74.7,689.2z"/>
					<path class="st1" d="M118.7,1346.4c3.9-2,8.8-3.1,13.9-3.9C126.1,1342.5,120.5,1343.4,118.7,1346.4z"/>
					<path class="st1" d="M393.7,1548.3l-7-6.2c1.3,3-4.6,4.1-8.9,5.6C384.1,1547.5,393.3,1546.3,393.7,1548.3z"/>
					<path class="st1" d="M226.5,1602.2c3.3,0.9,0.4,1.9,3.7,2.8l12.6-0.2C242,1600.9,231.9,1598.2,226.5,1602.2z"/>
					<path class="st1" d="M303.9,1554c-22.7,0.5-15,4.4-10.8,8.7c-0.1-0.3-0.3-0.5,0-0.8C324.9,1563.3,314.4,1558.6,303.9,1554z"/>
					<path class="st1" d="M293.9,1563.8c1.1,1.3,1.7,2.7,0.6,4C307.2,1568.3,297.1,1566.2,293.9,1563.8z"/>
					<path class="st1" d="M362.9,1509.1c-5.9,2.1,29.1,1.3,19.8,2.5C411.6,1513.9,347.7,1497.8,362.9,1509.1z"/>
					<polygon class="st1" points="229.1,1557.5 257.1,1556 234.5,1553.5 					"/>
					<path class="st1" d="M249.7,1523.2l-7.8,7c4.7-0.1,7.5,0.8,9.6,1.9C252.4,1527.7,258,1523,249.7,1523.2z"/>
					<path class="st1" d="M251.5,1532c-0.5,2.2,0.1,4.4,4.6,5.6C255.8,1536.4,254.9,1533.8,251.5,1532z"/>
					<polygon class="st1" points="220.6,1548 226.5,1546 228.5,1541.1 					"/>
					<path class="st1" d="M255.1,1448.3l-8-7.6c-9.6-0.8-15.5,1.3-11.7,4.1C242.1,1446.7,245.8,1449.5,255.1,1448.3z"/>
					<path class="st1" d="M178.2,1471.3c5.8-2.1,12.1-2.2,21.3-3.4l-34.8-0.2L178.2,1471.3z"/>
					<path class="st1" d="M170.1,1449.2c-9.7-0.8-27.7-11-25.5-1.4C154.2,1448.5,162.2,1456.1,170.1,1449.2z"/>
					<polygon class="st1" points="214.1,1334.7 214.5,1336.6 271.6,1336.3 					"/>
					<path class="st1" d="M77.7,1233.8c-13.7,9,35.2,2.1,18.1,10.3c13.5,2.1,13.9-6.6,25.6-4.5
						C107.1,1234.2,115.2,1231.3,77.7,1233.8z"/>
					<path class="st1" d="M121.4,1239.6c2.2,0.9,5,1.8,8.7,2.8C126.5,1240.8,123.7,1240.1,121.4,1239.6z"/>
					<polygon class="st1" points="366.1,100.8 378,95 358.8,98.8 					"/>
					<path class="st1" d="M323.8,89.7l36.3-1.4l-32.9-3.5C328.8,86.2,332,88.7,323.8,89.7z"/>
					<path class="st1" d="M33.1,880.7l8.8,0.4c9.5-0.9,10.2-2.3,11.6-5L33.1,880.7z"/>
					<polygon class="st1" points="60.4,802.2 59.6,803.6 92.5,801 					"/>
					<path class="st1" d="M18.4,736.3c-1.4,2.7,6,5.9,4.6,8.6C17.1,739,59.4,735.6,18.4,736.3z"/>
				</g>
			</g>
		</g>
	</g>
</g>
<g>
	<line class="st0" x1="734.5" y1="124.9" x2="734.5" y2="1871.3"/>
	<g>
		<g>
			<g>
				<g>
					<path class="st1" d="M870.8,1869.3c-2.1,2.6,21.4,1.7,25.6,2C891.2,1867,864.7,1869.4,870.8,1869.3z"/>
					<polygon class="st1" points="817.5,1826.7 827.1,1827.5 803.7,1821.2 					"/>
					<path class="st1" d="M818,1786.9c-40,3.8,6.5,14.4-7.8,21.5l-9.1,1.2l32.2,3.2C828.2,1804.2,806.8,1793,818,1786.9z"/>
					<path class="st1" d="M904.4,1765.7c-15.6,1.3-13.4-4.6-4.9,4.9c1.7-0.5,2.7-0.6,3.9-0.9
						C903.3,1768.9,903.3,1767.7,904.4,1765.7z"/>
					<path class="st1" d="M903.5,1769.7C904.6,1773.9,916.6,1767,903.5,1769.7L903.5,1769.7z"/>
					<path class="st1" d="M894.6,1750.4l13.9,5.5c9.2-1.2,11.3-6.1,17.9-4.2C918.8,1746,909.7,1747.2,894.6,1750.4z"/>
					<path class="st1" d="M865.4,1745.1l5.9,2.9C875.2,1747.5,876.5,1746.7,865.4,1745.1z"/>
					<path class="st1" d="M883.7,1754.1l-12.4-6.1c-6.5,0.8-19.4,0.9,4.5,2.8C863.9,1750.3,875.3,1751.5,883.7,1754.1z"/>
					<path class="st1" d="M877.6,1757.5c-8.7,3.1-14.2,7.1-28,1.6C855.1,1769.6,883.2,1768.1,877.6,1757.5z"/>
					<path class="st1" d="M776.6,1784.9l-11.7,4.1l13.4,3.6C771.7,1790.8,789.2,1784.6,776.6,1784.9z"/>
					<path class="st1" d="M915.3,1716c-8.5-0.3-22.7,1.9-33.5,2.3l9.8,4.1C897.3,1720.2,902.7,1716.3,915.3,1716z"/>
					<path class="st1" d="M881.8,1718.3l-14.6-6.1C865.4,1717.6,872.4,1718.6,881.8,1718.3z"/>
					<polygon class="st1" points="821,1744.2 851.7,1754.2 820.6,1742.2 					"/>
					<polygon class="st1" points="916.4,1692.7 936.1,1696.1 906.3,1690 					"/>
					<path class="st1" d="M912.9,1677.2c16.3,2.6,27.6-3.5,37.6-0.8c-2.9-4.2-16.9-7.8-29.5-11
						C928.1,1668.8,926.3,1672.5,912.9,1677.2z"/>
					<path class="st1" d="M902.7,1660c3.9,1.7,10.9,3.5,18.3,5.4C917.3,1663.6,911.9,1661.8,902.7,1660z"/>
					<path class="st1" d="M871.4,1701.8c5.1-0.5,18.6-1.4,24.3-4.8l-23.9,2.4C871.6,1700.1,871.5,1700.9,871.4,1701.8z"/>
					<path class="st1" d="M870.9,1699.4l0.8-0.1c0.5-2.6,1.1-4.4,1.3-5.2C872.8,1694.8,872.2,1696.4,870.9,1699.4z"/>
					<path class="st1" d="M871.3,1702.4c0.1-0.2,0.1-0.4,0.1-0.6C869,1702,868.2,1702.1,871.3,1702.4z"/>
					<path class="st1" d="M842.7,1728.2c-13.4-3.6-27.7-11.1-48.1-3.8C811,1726.9,822.6,1722.8,842.7,1728.2z"/>
					<path class="st1" d="M841.3,1705.3l-5.5,6.5c6.3-0.1,15.5-1.3,22.2,0.5L841.3,1705.3z"/>
					<polygon class="st1" points="833.7,1702.2 841.3,1705.3 843.4,1702.9 					"/>
					<path class="st1" d="M880.3,1671.1c-10.4-2.8-11.3-5.9-13-9.3c-4.7,3.7-7.2,7.5-7.2,11.2
						C867.7,1673.5,881.1,1675.1,880.3,1671.1z"/>
					<path class="st1" d="M873.7,1684.9c-0.5-0.2-0.8-0.4-1.4-0.6C870.3,1684.6,869.6,1684.9,873.7,1684.9z"/>
					<path class="st1" d="M867.5,1627.7c-1.3,0.2-3,0.4-4.4,0.5c1.4,0,2.7,0.1,4.1,0.1L867.5,1627.7z"/>
					<path class="st1" d="M855.7,1673.6c-4.6,2.8,1.2,4.5,8.6,6c-2.4-2.1-4-4.3-4.2-6.7C856.8,1672.7,854.5,1672.7,855.7,1673.6z"/>
					<path class="st1" d="M891.5,1650.5c-5,1.5-9.2,3.1-13.2,4.8C885.9,1653.9,897.7,1651,891.5,1650.5z"/>
					<path class="st1" d="M878.9,1683.3c0.4,0.1,0.8,0.3,1.1,0.4C885.1,1682.8,882.6,1682.9,878.9,1683.3z"/>
					<path class="st1" d="M878.9,1683.3c-3.4-1.4-9.4-2.6-14.6-3.7c1.9,1.7,4.5,3.3,8,4.6C874,1683.9,876.6,1683.5,878.9,1683.3z"/>
					<path class="st1" d="M713.9,1617.4c22.2,0.5,42.7,7.8,18.9,14.1c16.6,6.2,89.6,2.2,130.4-3.3c-9.7-0.2-18.6-0.2-31.7-6.6
						c-12.1,2.2-28.3,14.2-48.4,8.8c-11.4-8.5,7.8-7,19.6-11.1c-27.6,3.5-40.2-10.8-80.9-8.9l14.3,7.4
						C729.7,1618,719.7,1615.3,713.9,1617.4z"/>
					<path class="st1" d="M860.9,1640.5l2.7,2.6c3.9-3,12.7-5.2,30.1-9.1c-10.8-4.4-19.1-5.3-26.4-5.6l-3.1,13L860.9,1640.5z"/>
					<path class="st1" d="M863.7,1654.9c-24.1-2.1-34.4-8.4-60.5-4.5c1.7,7.7,20.2,5.4,30.6,10c-6-12.5,13.4,3.6,27.1-5.4
						c4.1,2.5,5.4,4.7,6.4,6.7c2.9-2.2,6.6-4.4,11-6.5c-0.5,0.1-1,0.2-1.5,0.3l0.1,0.1c-0.2,0-0.2,0-0.4,0c-3,0.5-4.8,0.7-3.1,0.1
						c-0.3,0-0.4-0.2-0.5-0.3c-3.4-0.1-6.3-0.3-9.1-0.6c5-3.6,6.3-0.6,9.1,0.6c1.2,0,2.3,0.1,3.6,0.2c0.1,0,0.2,0,0.3,0l-13.2-12.5
						C860.3,1645.7,861,1649.1,863.7,1654.9z"/>
					<path class="st1" d="M742.7,1717.7c2.1-0.4,3.9-0.4,5.6-0.4C745.3,1716.5,743.3,1716.2,742.7,1717.7z"/>
					<path class="st1" d="M757.3,1712.5c3.4,0.9,13,1.7,10.5,4.6c-7.2,2.6-11.6,0-19.5,0.1c6.4,1.8,17.3,6.2,29,0.6l-3.3-0.9
						c8.3-5,38.4-11.5,41.7-10.6C794,1707.9,778.6,1709.2,757.3,1712.5z"/>
					<path class="st1" d="M804.3,1683.4l-11.8-10.4l-20.9,5.3l12.5-0.3C779.2,1683.9,794.7,1682.6,804.3,1683.4z"/>
					<polygon class="st1" points="879.5,1626.5 905,1627.9 869,1621.9 					"/>
					<polygon class="st1" points="876.4,1613 898.6,1613.5 885.3,1609.9 					"/>
					<path class="st1" d="M601.5,849.5l-6.3-3.1C597.1,847.9,599.2,848.8,601.5,849.5z"/>
					<path class="st1" d="M600,871.6l10.9,0.5C604.9,871.2,600.4,870.7,600,871.6z"/>
					<path class="st1" d="M874,1280.7c20.7-4.5,52.8-9.4,27.9-8.9l-24.3,1.4C881.9,1276.3,879.2,1278.7,874,1280.7z"/>
					<path class="st1" d="M728.9,1053.1c-2.4,0.4-4.9,0.9-7.4,1.3c8.3,1.1,16,2.1,23.2,3C739.8,1056.1,734.5,1054.7,728.9,1053.1z"
						/>
					<path class="st1" d="M628.4,1050l15.7-5.9C638.6,1045.4,633.3,1047.3,628.4,1050z"/>
					<path class="st1" d="M575.7,728.5L551,725C551.1,730.5,563.6,728.1,575.7,728.5z"/>
					<path class="st1" d="M867.5,1474.4c9.5-3.8,13.5-6.9,14.7-9.6C868.2,1469.5,847.3,1473.2,867.5,1474.4z"/>
					<path class="st1" d="M859.3,858.2c-4.4-1.9-9.4-2.7-14.8-2.6C848.7,857.5,853.3,858.6,859.3,858.2z"/>
					<path class="st1" d="M882.1,1453.7c-2.4,0.7-3.7,1.3-5.7,2c4.1,2.8,7.4,5.6,5.8,9.1C892.6,1461.4,898.9,1457.5,882.1,1453.7z"
						/>
					<path class="st1" d="M595.8,289.8c1.1-0.3,1.6-0.7,2.9-1C595.5,288.7,595.3,289.2,595.8,289.8z"/>
					<path class="st1" d="M841,162c1.5,1.3,1.5,3.3,1.9,5.2C844.5,166.3,844.4,164.7,841,162z"/>
					<path class="st1" d="M887.1,1558.5C888.6,1561.4,889.7,1559,887.1,1558.5L887.1,1558.5z"/>
					<path class="st1" d="M791,1572.5c-2.7-0.6-6.2-1.1-11.8-1.1C785,1571.6,788.7,1572,791,1572.5z"/>
					<path class="st1" d="M730.9,1425.1c0-0.1,0.1-0.2,0.1-0.2C726.2,1425.7,727.1,1425.6,730.9,1425.1z"/>
					<path class="st1" d="M876,1562.9c3-1.1,5.5-2.3,7.2-3.7C881.3,1559.8,879,1560.9,876,1562.9z"/>
					<path class="st1" d="M887.5,1562.3c-1.1,1-1.7,1.8-2.4,2.5C889.2,1565.2,891.7,1564.8,887.5,1562.3z"/>
					<path class="st1" d="M885.7,1554.5c0.4,1.6-0.8,3.2-2.5,4.6c1.6-0.6,3-0.8,3.8-0.6C886.7,1557.7,886.2,1556.5,885.7,1554.5z"/>
					<path class="st1" d="M660.9,524.9c0.8-0.2,1.3-0.4,2.3-0.6C653.1,521.4,654.7,522.6,660.9,524.9z"/>
					<path class="st1" d="M621.7,1206c0.2,0.1,0.9,0.2,1.2,0.3c0.2-0.1,0.6-0.3,0.9-0.4L621.7,1206z"/>
					<path class="st1" d="M603.6,1195.7c30.2,4.4,26.5,6.9,20.1,10.2l70.1-3.4L603.6,1195.7z"/>
					<path class="st1" d="M594.5,796.5l-21.8,7.2c-35.9-8.7-23.5-15.1-54.2-8.3c76.1,1,7.8,28.1,83.8,29.1l-16,4.8
						c0.7-1.4-3.7-1.6-3-2.9c-36.4,9.3,55,6.9,44.2,18.8c-5.8,4.2-16.9,7.1-25.9,4.2l18.8,9.3c-1.5,2.7-14.7,2-13.2-0.6l6.1,14.2
						l-2.2-0.1c11.9,2,30.4,6.6,38.2,8.8c-10.9,3.6-8.1-1.8-17.6-0.9L650,888c-19.7,3.2-38.8-3.3-36-8.7
						c-75.9,7.3,19.1,6.5-25.2,22.3l-9.6-7.4c-43.1,4.8-27.5,10.6-54.4,18.9c14.1-2,67.8-16.8,86.7-8.2c-5.7,2.4-8.5,5.6,6.8,10.1
						c-27,0-20.4,4.5-18.9,10.1l-35.8-0.4c10.3,6.1,28.6,5.6,44.7,9.2c-3.5,6.8-31.3,8.2-54.7,9.8c-5.7,10.8,44.5-7.5,51.2,5.3
						c-13.7,9,0.9,15.3,22.4,26.1c-12.3,6.3-21.9-1.1-32.2,1.2l28.6,5.6c-0.7,1.4-9.5,0.9-13.9,0.7c11.1,4.7,35.8,0.4,45.5,7.8
						c39.5,2-57.7,15.2-12.9,24.3c-10.2,2.3-22-1.1-35.8-0.4c29.4,12.6,21.4,10.8,60.9,21.1l-23.5,8.8c26.9-6.5,58.7,1.8,84.9,9
						c13-2.3,24.4-4.2,29.8-5.6l19.2,11.5c-5.9,1.4-18.2,0.2-33.1-1.7c3,0.8,5.9,1.5,8.6,2.1c-13.2,4.1-33.9,2-53.9-1
						c7.1-1.4,14.6-2.8,22.1-4.2c-21.8-2.8-45.9-5.5-66.8-4.9c4.1,0.7,7.7,2.2,9.7,3.8c-5.9-0.7-11.2-1.2-14.8-0.9
						c-3.8,0.4,4.2,1.6,13.3,3.5l-39.9,2.6l15.9,0.6l-25,15.1c40.2,10.8,99.4,20.2,115.9,37.3c-29.3-4.3-47.8-0.9-82.5-1.1
						c36.7-4.7-15.6-13.3-8.1-22.1c-3.9,4.6-20.4,3.6-26.2,2.4l33.4,15.8c-28.4-0.4-21.3,3.4-33,7.5c56.1-3.1,37.4,11.8,54.6,18.2
						c-18.8,0.4-38.1-1.1-33.5-9c-42.2,8.7,65.9,11.2,30,19.7c-0.5-1.9,2.4-3-7.1-3.7c16.7,4.5,3.5,15.4-12.9,12.9l-0.4-1.9
						c-6.6,12.7-0.4,38.8,47.2,40.7c-6.2,0.1-57.4-1.7-67-2.4l160.3,22.7c-40.9-2-138.3,5.7-161.4-4.9c-5.8,3-12.6,6.8,1.8,13.2
						c5.8-2.1,59.1-5.2,62.9-2.3c-45.6,7.8-24.4,5.4-63.2,15c8.8-3.1,72.9,0.3,70.9,5.2c-9.6-0.8-63.3,0.4-70-1.4l63,12.2
						c-11.3-3-53.4-0.5-71.2,2.2c12.3-1.3-1.1,10.6,5.1,13.8l14.6-5.2c-9.5,13.8,88.6,13.6,85.3,27.3c-13-1.7-80.1-4.1-88,2.9
						c32.3,3.2,155.1,14.1,180,26.2l-18.4,2.3l21,9.3c-48.5-5.8-150.7-22-190.4-30.8c-14.6,5.2-21.7,1.4-20.1,9.2
						c-17.3,2.7-26.2-4.2-27.2-6.5l-11.2,18c37.7-0.8,37.8,13.7,69.1,13.1l-39-19.5c37.6-0.8,106.9,11.3,100.2,24
						c-15,3.2-67-2.4-79.6-2.2c13,1.7,24.7,12.1,15.6,13.3l-20.1-5.4c-14.2,7.1,49.9,11.6,14,20.1c-2.4,2.9-48.5,8.8-26.2,9.3
						c43-4.8,175.9-5.7,208.1-2.5c-2.9,1-41.1,15.4-62.3,18.8c-33.7,4.8-80.3-7.3-109.2-3.1c10.3,0.2,23,2.9,27,4
						c-8.8,3.1-31.9-1.3-27.2,5.4c38.2,1.1-3.2,13.7,32.3,3.2c10.9,6.6-7.8,7-6.2,14.7c24.7-2.5,83.9,6.9,94.8,13.5
						c-9.7-0.4-22.3,1.1-28.1,1.8c-3.4,13.5-20.8,20.7-21.1,33.2c-9.2,1.2-20.4,7.2-36.9,4.6c6.8,1.8,19.7,3.5,20.6,7.3
						c-33,7.5-5.1-8.6-44.8-2.9c22.2,0.5,30.6,10,44.5,15.5c34.3-1.7,6.6-12.7-7.3-18.3c47.3,0,96.7,9.6,118.6,22.7
						c11.7,10.4-30.5,4.5-23.8,6.3c-8.3,19.6,82.5,16.7,48.4,32.9c-30.1,6.5-59.9,0.3-81.6,1.7c-11.4-8.5,19.1-13,17.9-18.8
						l-14.2,7.1c-10-2.7-17.6-8.4-8.9-11.5c-27,5.4-5.2,33.1-30.2,48.2c10.1,2.7,20.5,7.3,32.6,5.1l-4.2-4.8
						c24.3-4.4,33.6,9,44.9,2.9c17.1,6.4,43.9,13.6,30.2,22.6l-34.3,1.7c10-0.2,20.5-5.9,10-8.4c15.2,3.8-46.5,13.8-1.5,18l23.8-6.3
						c17.3,6.4,53.7,14.4,42.9,22.4c33.9-3.6-3.9-1.8,35.8-7.5c-49.4,4.9,2.1-20.5-49.8-12.5c46-5.8,19.5-10.1,58.8-17.7
						c-11.3,0.2-21.7,2.7-16.1-4c-3.3-0.3-7.5-1-10-1.5c0.3-0.2,0.5-0.3,0.8-0.5c-0.4,0.1-0.9,0.2-1.3,0.4c-1.7-0.3-2-0.3-0.5,0.1
						c-5,1.6-10.9,2.9-17.2,3.4c-26-3.3-25.2-14-38.6-17.6c5.4-4,13,1.7,25.1-0.5l-20.1-5.4c25.2-0.5,41.8-10.6,56.5-1.2l1.1-8.4
						c14.1-5,19.7-11.8,9.1-16c5.4-4-27.8-10.1-8.1-6.6l-15.6-13.3l6.3-0.1c3.2-13.1-41.6-26.9,3.7-41.9c-6.3-4.4-14.1-9-7-16.3
						l21.8-1.4c-7.6-5.7,21.8-17-0.9-19.4c58.5-6.1,12.8-27.4,23.2-37.4l-28.4-0.4c1.6-6.8-6.5-13.4-17.9-21.9l-25.1,0.5
						c-20.6-7.3,17.9-18.8,15.3-30.4c9.6,0.8,7.1,3.7,1.3,5.8c56.7-13.8-41.3-29.2,0.1-41.7c-9.1-3.1-6-5.4,0.3-7.6
						c0.1,0.3,0.5,0.6,1.3,0.8c0.3-0.3,0.4-0.8,0.3-1.3c4.3-1.4,9.3-2.8,13.4-4.3c-6.1,1.3-11.1,2.6-13.5,3.7
						c-0.5-2.4-3.6-6.1-9.9-9.7l27-1.5c-0.4-0.3-0.3-0.5-0.8-0.8c10-3.5-12.8-2.8-33.1-1c-4.4-1.8-9.8-3.5-16.3-4.7
						c43.5-2.9-14.7-9.4,31.8-13.3c-22.6-2.4-17-18-64.7-19.9c6.2-0.1,9.2-1.2,9.5,0.8c5.4-4,10.9-8-2.6-11.6l34.3-1.7l-46.1-8.7
						c20.9-5.3,33-7.5,59.4-2.2c-40.6-12.7-15.3-10.3-55.5-21.1l22.2,0.5c-0.8-3.9-30.5-10-12.2-12.4c42.1-8.6,5.8-42.8,45-65
						c-65.3,4.3,29.3-10.3-21.3-11.2c15.4-1.3,24.1-4.4,37.6-0.8c-15.2-11.3,24.5-17-18.2-24.8c15.5-1.3,22.6,2.4,31.8,1.3
						c-3.3-0.9-13.4-3.6-4.2-4.8c9.2-1.2,13,1.7,19.7,3.5c-2.6-11.6-50.2-12.7-94.8-13.6c21.1-5.9,18.2-8.8-11.1-13
						c14.6-2,29.9-5.4,35.1,1.7c2.1-4,21.4-24.7-14.4-25.1c9.1-1.3,2.7-5.7-1.5-6.7c2.1-9.1,5.4-9.9,2-18.8l-5.9,2.5
						c-43.2-3.5-9.6-7.4-14.8-14.6l4.4,0.2c31.1-16.5-14.9-7.1,20.6-23.4l-26.9,0.9c-57.8-1.5,34.1-14.4,12-23.8l-15.3,3.4
						c-19.8-5.2,78.6-14.4,85.8-19.6c5-1.1,8.1,1.8,11.8,3.4c34.1-13.5-35.2-1.8-43.4-11.8c19-1.9,48.3,2.4,51.8-4.4
						c15.4-3.4-61.6-19.7-25.2-29c-14.6,2-29.2,4.1-40.2-0.6c-5.2-7.2,55.3-19.4,9.2-25.9c4-0.9,7.8-1.3,11.5-1.3
						c-11.9-5.5-19.8-17.8-44.8-21.2c92.8-5.1-45.1-34.1,40.4-34l-4.6-16.9l8.7,0.4c5.7-10.8-14.8-14.6-35.4-18.4
						c5.8-2.5,13.8-0.7,18.3-0.5c17.3-15.8,13.6-17.3-29-30.6l27.8-1.4c-16.1-3.6,43.5-22.8,11.2-38.3c3.1,0.2,8.5,0.5,12.4,1.7
						c-32.6-17.4,77-41.7-24.1-48.1L800.6,637c-7.9,14.9-43.9-2.2-60.7,3.9c-5.9-5.8,30.5-15.1,35.7-7.9l-5.1,1.1
						c52.7,2.6,18.7-18.5,54.5-18.1c-2.6-29.2,26.6-57.8,28.8-85.2l-41,3.2l2.4-9.6c9.5-2.5,32-3.4,30.4,3.5
						c23.2-3.6-19.4-11.4-28.4-11.6c16.6-13.3,47.8,5.2,48.8,1.1l-3.1-5.6l-4.8,1.3c-16.7-4.5-34.5-4.9-32.5-13.1
						c8.2-5.2,25.3-2.7,26.8-4.7c2.9,0,4.3-0.7,1.2-3.1l3.5-12L825,485c-15.9-5.3,1.7-11.3-34.9-5.8c56.5-8.2,20.3-44.9,37.8-49.9
						c-23.6-7.5-23.2-14.9-20.3-24c-6.7,2.3-43.1,3.6-38.6-4.3c75,2.9,32.6-14.4,86.5-20.8c-35.8,5.7-8.8-22.4-59.7-13.5
						c6.1-6.6,28.1-0.4,45.7-5.4c-29.1-15.7,18.9-34.5,9.1-53.9c-9.8-0.3-24.9,2.9-39.6-1.2l49.2-10.2c-4.8-3.8-56.9-3.5-22.7-10.5
						c-8.3,1-20.8,2.5-23.9-0.1c48-37.9-39.3-77.5,50.9-116c-19.1,5.2-21,1.7-21.7-2.2c-4.6,2.6-24.3-0.1-37.7,0.4l37.1-16.1
						c-37-2.9-2.5-17.3-37.9-19l6.4,5.1c-41.8-6.8-92.9,9.5-146.6,8.5c47.5,7.6-70.4,20-2.4,32.5c-10.9,2.8-17.3-2.3-29.7-0.9
						c23,3.2,27.8,7,17.5,14.1l-5.7-0.8c5.6,19.9-17.1,28.4-32.2,50.7l26.5-1.7c-3.6,4.8-11.9,5.8-18.5,8.1
						c40.2,5.5,2.3-13.5,46.6-8.5c-54,6.4-0.8,33.8-62.2,38.1c-0.3,7.4,30.7-2.2,30.4,5.2l-16.6,2l21.4,1.9
						c-3.5,4.8-24.3,7.3-38.3,7.5c1.7-1.2-3.9-3.3-5.1-4.6c-19.5,6.3,6.7,17.7,0.3,19.8l10.2-7.1c15.5,20.1-6.3,44.7,27.5,64.2
						l12.5-1.5c23.2,14.9-13.8,11.9-3,28.2l-3-0.6c12.5,3.3,18.8,7.6,17.3,12.1c-14.7-4.1-28.5,7.8-44.7,2.3
						c24.9,16.1,19.5,8,66,18.6l-20.8,2.5c18.8,3.6,28.7,3.9,34.1,12.1c-17.8-6.7-31.6,5.2-55.2-2.3c-45.4,17.1,45.9,25.4-20.6,33.2
						c57.5,7.9,31.9-14.8,44.2-10.4c18.8-3.7,43,6.5,37.2,11.8c-1.3,5.5-73.5,9.3-72.4,23c0.3-1.4-4.1-1.5-3.8-2.8
						c-14.7,5.1,19.9,10.1-4,16.4c34.8,3.5-2,8.2,42.3,9.2l-10.3-12.6c11.6,7.1,63.5,13.8,38.3,25.6c-8.9-0.9-20.7-4.4-27.3-6.8
						c-13.1,3.4,8.7,6.6-4.8,10.2c-44.4-1-9.7-15.3-43.5-23c-18.7,3.7,32.1,14.5-15.9,10.6c61.1,5.5-7.7,13.5,38.9,22.8l-26.6-0.6
						c4.2,1.5,16.7,4.5,16.1,7.2l-34.5-4.9c29.4,7.5-25.7,14.5-9.7,21.7c-0.8-15.1,32-3.4,51.4-9.8c35.6,18.7-69.5,10.7-56.8,31.6
						c-3.7-2.8,16-10.6,28.3-6.2c-5.5,4-15.7,9.2-29.6,11.7c5.5,13.8,27.3-2.1,43.7,3.8c-32.4,4.7,13.2,6.8,23.5,12.9l-27,0
						c-17.3,15.8,56.3,4.2,35.4,18.4l-37.5-6l9.7,7.4l-30.7-1.5c22.8,8.1,16.9,10.6,8.3,18.5c19-1.8,49,1,49.9,8
						c-16,4.8-25.7-2.7-21.8,7.2c-16.9-2.2-38.1-4.7-13.2-9c-8.8-0.4-17-2.2-25.7-2.7c-18.5,5.1-4.2,12.9-4,16.5
						c1-1.4,2.5-3,6.3-3.9l37.4,14.4c-10.1,2.3-18.3,0.5-26.3-1.3c2.9,2.9,15.3,4.9,17.7,9.2c-22-1.1-44.6-0.8-55-6.9l24.4,13.7
						c-9.5,0.9-26.2,7-34.3,5.2c-12.9,7.6,42.6,18.6,25.6,28.7c4.3,0.5,8.3,1.6,11.5,3.7c-5,9.4-31.9,17.8-1.8,29l-39.4,6.4
						c8.9,8.8,49.6-8.6,64.5,6c12.5,10.3-33.6,3.9-44.5,7.5c19.9,5.1,60.2,14.1,28.2,23.6C591.6,801.9,597.4,799.4,594.5,796.5z
						 M611.9,904.6c-5.7-2.1-23.2-6.3-7.2-7.8C635.7,899.2,620.8,901,611.9,904.6z M677,1069.1c-8.9-1.6-4.5-4,5.7-6.7
						C684.9,1064.3,683.9,1066.6,677,1069.1z M865.1,1527.1c-0.4-0.1-0.8-0.2-1.3-0.2C874.3,1522.2,870.1,1523.9,865.1,1527.1z
						 M853.3,1536.8c3.8,1,7.5,0.9,11.3,0.5c-6.8-0.7-7.3-2.9-5.4-5.3C852.2,1532.6,847.3,1533.9,853.3,1536.8z M842.7,494.2
						l-7.1,1.9C827.9,491.9,834.9,493.1,842.7,494.2z"/>
					<path class="st1" d="M640,1050.4c4.6-0.6,9.6-0.8,14.7-0.9C650.1,1048.7,644.9,1048.7,640,1050.4z"/>
					<path class="st1" d="M580.3,729.2c0.2-0.1,0.1-0.2,0.3-0.3c-1.6-0.2-3.3-0.3-4.9-0.3L580.3,729.2z"/>
					<path class="st1" d="M624.3,1386.4c3.9-2,8.8-3.1,13.9-3.9C631.6,1382.5,626,1383.4,624.3,1386.4z"/>
					<path class="st1" d="M899.3,1588.2l-7-6.2c1.3,3-4.6,4.1-8.9,5.6C889.7,1587.5,898.8,1586.3,899.3,1588.2z"/>
					<path class="st1" d="M732.1,1642.2c3.3,0.9,0.4,1.9,3.7,2.8l12.6-0.2C747.5,1640.9,737.4,1638.2,732.1,1642.2z"/>
					<path class="st1" d="M809.5,1594c-22.7,0.5-15,4.4-10.8,8.7c-0.1-0.3-0.3-0.5,0-0.8C830.5,1603.3,820,1598.6,809.5,1594z"/>
					<path class="st1" d="M799.4,1603.8c1.1,1.3,1.7,2.7,0.6,4C812.8,1608.3,802.7,1606.2,799.4,1603.8z"/>
					<path class="st1" d="M868.4,1549.1c-5.9,2.1,29.1,1.3,19.8,2.5C917.1,1553.9,853.2,1537.8,868.4,1549.1z"/>
					<polygon class="st1" points="734.6,1597.5 762.7,1596 740.1,1593.5 					"/>
					<path class="st1" d="M755.2,1563.1l-7.8,7c4.7-0.1,7.5,0.8,9.6,1.9C757.9,1567.7,763.5,1563,755.2,1563.1z"/>
					<path class="st1" d="M757,1572c-0.5,2.2,0.1,4.4,4.6,5.6C761.4,1576.4,760.4,1573.8,757,1572z"/>
					<polygon class="st1" points="726.2,1588 732,1586 734.1,1581 					"/>
					<path class="st1" d="M760.6,1488.3l-8-7.6c-9.6-0.8-15.5,1.3-11.7,4.1C747.6,1486.7,751.3,1489.5,760.6,1488.3z"/>
					<path class="st1" d="M683.8,1511.3c5.8-2.1,12.1-2.2,21.3-3.4l-34.8-0.2L683.8,1511.3z"/>
					<path class="st1" d="M675.7,1489.1c-9.7-0.8-27.7-11-25.5-1.4C659.7,1488.5,667.7,1496.1,675.7,1489.1z"/>
					<polygon class="st1" points="719.7,1374.7 720.1,1376.6 777.1,1376.3 					"/>
					<path class="st1" d="M583.2,1273.8c-13.7,9,35.2,2.1,18.1,10.3c13.5,2.1,13.9-6.6,25.6-4.5
						C612.7,1274.1,620.7,1271.3,583.2,1273.8z"/>
					<path class="st1" d="M626.9,1279.6c2.2,0.9,5,1.8,8.7,2.8C632,1280.8,629.3,1280,626.9,1279.6z"/>
					<polygon class="st1" points="871.6,140.8 883.5,135 864.4,138.8 					"/>
					<path class="st1" d="M829.3,129.7l36.3-1.4l-32.9-3.5C834.4,126.2,837.5,128.7,829.3,129.7z"/>
					<path class="st1" d="M538.7,920.7l8.8,0.4c9.5-0.9,10.2-2.3,11.6-5L538.7,920.7z"/>
					<polygon class="st1" points="565.9,842.2 565.2,843.5 598,841 					"/>
					<path class="st1" d="M524,776.3c-1.4,2.7,6,5.9,4.6,8.6C522.6,779,565,775.6,524,776.3z"/>
				</g>
			</g>
		</g>
	</g>
</g>
<g>
	<line class="st0" x1="1240" y1="144.9" x2="1240" y2="1891.3"/>
	<g>
		<g>
			<g>
				<g>
					<path class="st1" d="M1376.4,1889.3c-2.1,2.6,21.4,1.7,25.6,2C1396.8,1887,1370.3,1889.4,1376.4,1889.3z"/>
					<polygon class="st1" points="1323.1,1846.7 1332.7,1847.5 1309.2,1841.2 					"/>
					<path class="st1" d="M1323.5,1806.9c-40,3.8,6.5,14.4-7.8,21.5l-9.1,1.2l32.2,3.2C1333.7,1824.2,1312.4,1813,1323.5,1806.9z"/>
					<path class="st1" d="M1410,1785.7c-15.6,1.3-13.4-4.6-4.9,4.9c1.7-0.5,2.7-0.6,3.9-0.9
						C1408.8,1788.9,1408.9,1787.7,1410,1785.7z"/>
					<path class="st1" d="M1409.1,1789.7C1410.2,1793.9,1422.1,1787,1409.1,1789.7L1409.1,1789.7z"/>
					<path class="st1" d="M1400.2,1770.4l13.9,5.5c9.2-1.2,11.3-6.1,17.9-4.2C1424.4,1766,1415.2,1767.2,1400.2,1770.4z"/>
					<path class="st1" d="M1371,1765.1l5.9,2.9C1380.7,1767.5,1382,1766.7,1371,1765.1z"/>
					<path class="st1" d="M1389.3,1774.1l-12.4-6.1c-6.5,0.8-19.4,0.9,4.5,2.8C1369.5,1770.3,1380.9,1771.5,1389.3,1774.1z"/>
					<path class="st1" d="M1383.2,1777.5c-8.7,3.1-14.2,7.1-28,1.6C1360.7,1789.6,1388.8,1788.1,1383.2,1777.5z"/>
					<path class="st1" d="M1282.2,1804.9l-11.7,4.1l13.4,3.6C1277.2,1810.8,1294.7,1804.6,1282.2,1804.9z"/>
					<path class="st1" d="M1420.9,1736c-8.5-0.3-22.7,1.9-33.5,2.3l9.8,4.1C1402.9,1740.2,1408.2,1736.3,1420.9,1736z"/>
					<path class="st1" d="M1387.3,1738.2l-14.6-6.1C1371,1737.6,1377.9,1738.6,1387.3,1738.2z"/>
					<polygon class="st1" points="1326.6,1764.2 1357.3,1774.2 1326.2,1762.2 					"/>
					<polygon class="st1" points="1421.9,1712.7 1441.6,1716.1 1411.9,1710 					"/>
					<path class="st1" d="M1418.5,1697.2c16.3,2.6,27.6-3.5,37.6-0.8c-2.9-4.2-16.9-7.8-29.5-11
						C1433.6,1688.8,1431.8,1692.5,1418.5,1697.2z"/>
					<path class="st1" d="M1408.2,1680c3.9,1.7,10.9,3.5,18.3,5.4C1422.8,1683.6,1417.4,1681.8,1408.2,1680z"/>
					<path class="st1" d="M1376.9,1721.7c5.1-0.5,18.6-1.4,24.3-4.8l-23.9,2.4C1377.1,1720.1,1377,1720.9,1376.9,1721.7z"/>
					<path class="st1" d="M1376.5,1719.4l0.8-0.1c0.5-2.6,1.1-4.4,1.3-5.2C1378.4,1714.8,1377.8,1716.4,1376.5,1719.4z"/>
					<path class="st1" d="M1376.8,1722.4c0.1-0.2,0.1-0.4,0.1-0.6C1374.6,1722,1373.8,1722.1,1376.8,1722.4z"/>
					<path class="st1" d="M1348.3,1748.2c-13.4-3.6-27.7-11.1-48.1-3.8C1316.5,1746.9,1328.1,1742.8,1348.3,1748.2z"/>
					<path class="st1" d="M1346.9,1725.3l-5.5,6.5c6.3-0.1,15.5-1.3,22.2,0.5L1346.9,1725.3z"/>
					<polygon class="st1" points="1339.3,1722.2 1346.9,1725.3 1348.9,1722.9 					"/>
					<path class="st1" d="M1385.9,1691.1c-10.4-2.8-11.3-5.9-13-9.3c-4.7,3.7-7.2,7.5-7.2,11.2
						C1373.2,1693.5,1386.7,1695.1,1385.9,1691.1z"/>
					<path class="st1" d="M1379.2,1704.9c-0.5-0.2-0.8-0.4-1.4-0.6C1375.8,1704.6,1375.2,1704.9,1379.2,1704.9z"/>
					<path class="st1" d="M1373.1,1647.7c-1.3,0.2-3,0.4-4.4,0.5c1.4,0,2.7,0.1,4.1,0.1L1373.1,1647.7z"/>
					<path class="st1" d="M1361.2,1693.6c-4.6,2.8,1.2,4.5,8.6,6c-2.4-2.1-4-4.3-4.2-6.7C1362.3,1692.7,1360.1,1692.7,1361.2,1693.6
						z"/>
					<path class="st1" d="M1397.1,1670.5c-5,1.5-9.2,3.1-13.2,4.8C1391.5,1673.9,1403.3,1671,1397.1,1670.5z"/>
					<path class="st1" d="M1384.5,1703.3c0.4,0.1,0.8,0.3,1.1,0.4C1390.7,1702.8,1388.1,1702.9,1384.5,1703.3z"/>
					<path class="st1" d="M1384.5,1703.3c-3.4-1.4-9.4-2.6-14.6-3.7c1.9,1.7,4.5,3.3,8,4.6
						C1379.5,1703.9,1382.1,1703.5,1384.5,1703.3z"/>
					<path class="st1" d="M1219.4,1637.4c22.2,0.5,42.7,7.8,18.9,14.1c16.6,6.2,89.6,2.2,130.4-3.3c-9.7-0.2-18.6-0.2-31.7-6.6
						c-12.1,2.2-28.3,14.2-48.4,8.8c-11.4-8.5,7.8-7,19.6-11.1c-27.6,3.5-40.2-10.8-80.9-8.9l14.3,7.4
						C1235.3,1638,1225.2,1635.3,1219.4,1637.4z"/>
					<path class="st1" d="M1366.4,1660.4l2.7,2.6c3.9-3,12.7-5.2,30.1-9.1c-10.8-4.4-19.1-5.3-26.4-5.6l-3.1,13L1366.4,1660.4z"/>
					<path class="st1" d="M1369.3,1674.9c-24.1-2.1-34.4-8.4-60.5-4.5c1.7,7.7,20.2,5.4,30.6,10c-6-12.5,13.4,3.6,27.1-5.4
						c4.1,2.5,5.4,4.7,6.4,6.7c2.9-2.2,6.6-4.4,11-6.5c-0.5,0.1-1,0.2-1.5,0.3l0.1,0.1c-0.2,0-0.2,0-0.4,0c-3,0.5-4.8,0.7-3.1,0.1
						c-0.3,0-0.4-0.2-0.5-0.3c-3.4-0.1-6.3-0.3-9.1-0.6c5-3.6,6.3-0.6,9.1,0.6c1.2,0,2.3,0.1,3.6,0.2c0.1,0,0.2,0,0.3,0l-13.2-12.5
						C1365.8,1665.7,1366.5,1669,1369.3,1674.9z"/>
					<path class="st1" d="M1248.2,1737.7c2.1-0.4,3.9-0.4,5.6-0.4C1250.9,1736.5,1248.9,1736.1,1248.2,1737.7z"/>
					<path class="st1" d="M1262.8,1732.5c3.4,0.9,13,1.7,10.5,4.6c-7.2,2.6-11.6,0-19.5,0.1c6.4,1.8,17.3,6.2,29,0.6l-3.3-0.9
						c8.3-5,38.4-11.5,41.7-10.6C1299.6,1727.9,1284.1,1729.2,1262.8,1732.5z"/>
					<path class="st1" d="M1309.9,1703.4l-11.8-10.4l-20.9,5.3l12.5-0.3C1284.8,1703.9,1300.2,1702.6,1309.9,1703.4z"/>
					<polygon class="st1" points="1385.1,1646.5 1410.5,1647.9 1374.6,1641.9 					"/>
					<polygon class="st1" points="1382,1633 1404.2,1633.5 1390.8,1629.9 					"/>
					<path class="st1" d="M1107,869.5l-6.3-3.1C1102.7,867.9,1104.8,868.8,1107,869.5z"/>
					<path class="st1" d="M1105.5,891.6l10.9,0.5C1110.4,891.1,1106,890.7,1105.5,891.6z"/>
					<path class="st1" d="M1379.5,1300.7c20.7-4.5,52.8-9.4,27.9-8.9l-24.3,1.4C1387.4,1296.3,1384.7,1298.7,1379.5,1300.7z"/>
					<path class="st1" d="M1234.4,1073.1c-2.4,0.4-4.9,0.9-7.4,1.3c8.3,1.1,16,2.1,23.2,3C1245.3,1076.1,1240,1074.7,1234.4,1073.1z
						"/>
					<path class="st1" d="M1133.9,1070l15.7-5.9C1144.1,1065.4,1138.9,1067.3,1133.9,1070z"/>
					<path class="st1" d="M1081.3,748.5l-24.7-3.6C1056.7,750.5,1069.1,748.1,1081.3,748.5z"/>
					<path class="st1" d="M1373.1,1494.4c9.5-3.8,13.5-6.9,14.7-9.6C1373.8,1489.4,1352.8,1493.2,1373.1,1494.4z"/>
					<path class="st1" d="M1364.9,878.2c-4.4-1.9-9.4-2.7-14.8-2.6C1354.2,877.5,1358.9,878.6,1364.9,878.2z"/>
					<path class="st1" d="M1387.6,1473.7c-2.4,0.7-3.7,1.3-5.7,2c4.1,2.8,7.4,5.6,5.8,9.1
						C1398.1,1481.4,1404.5,1477.5,1387.6,1473.7z"/>
					<path class="st1" d="M1101.4,309.8c1.1-0.3,1.6-0.7,2.9-1C1101,308.7,1100.8,309.2,1101.4,309.8z"/>
					<path class="st1" d="M1346.6,182c1.5,1.3,1.5,3.3,1.9,5.2C1350.1,186.3,1349.9,184.7,1346.6,182z"/>
					<path class="st1" d="M1392.6,1578.5C1394.2,1581.4,1395.3,1579,1392.6,1578.5L1392.6,1578.5z"/>
					<path class="st1" d="M1296.5,1592.5c-2.7-0.6-6.2-1.1-11.8-1.1C1290.6,1591.6,1294.3,1592,1296.5,1592.5z"/>
					<path class="st1" d="M1236.4,1445.1c0-0.1,0.1-0.2,0.1-0.2C1231.7,1445.7,1232.6,1445.6,1236.4,1445.1z"/>
					<path class="st1" d="M1381.6,1582.9c3-1.1,5.5-2.3,7.2-3.7C1386.9,1579.8,1384.5,1580.9,1381.6,1582.9z"/>
					<path class="st1" d="M1393,1582.3c-1.1,1-1.7,1.8-2.4,2.5C1394.7,1585.1,1397.3,1584.8,1393,1582.3z"/>
					<path class="st1" d="M1391.3,1574.5c0.4,1.6-0.8,3.2-2.5,4.6c1.6-0.6,3-0.8,3.8-0.6C1392.2,1577.7,1391.7,1576.5,1391.3,1574.5
						z"/>
					<path class="st1" d="M1166.4,544.9c0.8-0.2,1.3-0.4,2.3-0.6C1158.6,541.4,1160.2,542.6,1166.4,544.9z"/>
					<path class="st1" d="M1127.2,1226c0.2,0.1,0.9,0.2,1.2,0.3c0.2-0.1,0.6-0.3,0.9-0.4L1127.2,1226z"/>
					<path class="st1" d="M1109.1,1215.7c30.2,4.4,26.5,6.9,20.1,10.2l70.1-3.4L1109.1,1215.7z"/>
					<path class="st1" d="M1100,816.5l-21.8,7.2c-35.9-8.7-23.5-15.1-54.2-8.3c76.1,1,7.8,28.1,83.8,29.1l-16,4.8
						c0.7-1.4-3.7-1.6-3-2.9c-36.4,9.3,55,6.9,44.2,18.8c-5.8,4.2-16.9,7.1-25.9,4.2l18.8,9.3c-1.5,2.7-14.7,2-13.2-0.6l6.1,14.2
						l-2.2-0.1c11.9,2,30.4,6.6,38.2,8.8c-10.9,3.6-8.1-1.8-17.6-0.9l18.4,7.8c-19.7,3.2-38.8-3.3-36-8.7
						c-75.9,7.3,19.1,6.5-25.2,22.3l-9.6-7.4c-43.1,4.8-27.5,10.6-54.4,18.9c14.1-2,67.8-16.8,86.7-8.2c-5.7,2.4-8.5,5.6,6.8,10.1
						c-27,0-20.4,4.5-18.9,10.1l-35.8-0.4c10.3,6.1,28.6,5.6,44.7,9.2c-3.5,6.8-31.3,8.2-54.7,9.8c-5.7,10.8,44.5-7.5,51.2,5.3
						c-13.7,9,0.9,15.3,22.4,26.1c-12.3,6.3-21.9-1.1-32.2,1.2l28.6,5.6c-0.7,1.4-9.5,0.9-13.9,0.7c11.1,4.7,35.8,0.4,45.5,7.8
						c39.5,2-57.7,15.2-12.9,24.3c-10.2,2.3-22-1.1-35.8-0.4c29.4,12.6,21.4,10.8,60.9,21.1l-23.5,8.8c26.9-6.5,58.7,1.8,84.9,9
						c13-2.3,24.4-4.2,29.8-5.6l19.2,11.5c-5.9,1.4-18.2,0.2-33.1-1.7c3,0.8,5.9,1.5,8.6,2.1c-13.2,4.1-33.9,2-53.9-1
						c7.1-1.4,14.6-2.8,22.1-4.2c-21.8-2.8-45.9-5.5-66.8-4.9c4.1,0.7,7.7,2.2,9.7,3.8c-5.9-0.7-11.2-1.2-14.8-0.9
						c-3.8,0.4,4.2,1.6,13.3,3.5l-39.9,2.6l15.9,0.6l-25,15.1c40.2,10.8,99.4,20.2,115.9,37.3c-29.3-4.3-47.8-0.9-82.5-1.1
						c36.7-4.7-15.6-13.3-8.1-22.1c-3.9,4.6-20.4,3.6-26.2,2.4l33.4,15.8c-28.4-0.4-21.3,3.4-33,7.5c56.1-3.1,37.4,11.8,54.6,18.2
						c-18.8,0.4-38.1-1.1-33.5-9c-42.2,8.7,65.9,11.2,30,19.7c-0.5-1.9,2.4-3-7.1-3.7c16.7,4.5,3.5,15.4-12.9,12.9l-0.4-1.9
						c-6.6,12.7-0.4,38.8,47.2,40.7c-6.2,0.1-57.4-1.7-67-2.4l160.3,22.7c-40.9-2-138.3,5.7-161.4-4.9c-5.8,3-12.6,6.8,1.8,13.2
						c5.8-2.1,59.1-5.2,62.9-2.3c-45.6,7.8-24.4,5.4-63.2,15c8.8-3.1,72.9,0.3,70.9,5.2c-9.6-0.8-63.3,0.4-70-1.4l63,12.2
						c-11.3-3-53.4-0.5-71.2,2.2c12.3-1.3-1.1,10.6,5.1,13.8l14.6-5.2c-9.5,13.8,88.6,13.6,85.3,27.3c-13-1.7-80.1-4.1-88,2.9
						c32.3,3.2,155.1,14.1,180,26.2l-18.4,2.3l21,9.3c-48.5-5.8-150.7-22-190.4-30.8c-14.6,5.2-21.7,1.4-20.1,9.2
						c-17.3,2.7-26.2-4.2-27.2-6.5l-11.2,18c37.7-0.8,37.8,13.7,69.1,13.1l-39-19.5c37.6-0.8,106.9,11.3,100.2,24
						c-15,3.2-67-2.4-79.6-2.2c13,1.7,24.7,12.1,15.6,13.3l-20.1-5.4c-14.2,7.1,49.9,11.6,14,20.1c-2.4,2.9-48.5,8.8-26.2,9.3
						c43-4.8,175.9-5.7,208.1-2.5c-2.9,1-41.1,15.4-62.3,18.8c-33.7,4.8-80.3-7.3-109.2-3.1c10.3,0.2,23,2.9,27,4
						c-8.8,3.1-31.9-1.3-27.2,5.4c38.2,1.1-3.2,13.7,32.3,3.2c10.9,6.6-7.8,7-6.2,14.7c24.7-2.5,83.9,6.9,94.8,13.5
						c-9.7-0.4-22.3,1.1-28.1,1.8c-3.4,13.5-20.8,20.7-21.1,33.2c-9.2,1.2-20.4,7.2-36.9,4.6c6.8,1.8,19.7,3.5,20.6,7.3
						c-33,7.5-5.1-8.6-44.8-2.9c22.2,0.5,30.6,10,44.5,15.5c34.3-1.7,6.6-12.7-7.3-18.3c47.3,0,96.7,9.6,118.6,22.7
						c11.7,10.4-30.5,4.5-23.8,6.3c-8.3,19.6,82.5,16.7,48.4,32.9c-30.1,6.5-59.9,0.3-81.6,1.7c-11.4-8.5,19.1-13,17.9-18.8
						l-14.2,7.1c-10-2.7-17.6-8.4-8.9-11.5c-27,5.4-5.2,33.1-30.2,48.2c10.1,2.7,20.5,7.3,32.6,5.1l-4.2-4.8
						c24.3-4.4,33.6,9,44.9,2.9c17.1,6.4,43.9,13.6,30.2,22.6l-34.3,1.7c10-0.2,20.5-5.9,10-8.4c15.2,3.8-46.5,13.8-1.5,18l23.8-6.3
						c17.3,6.4,53.7,14.4,42.9,22.4c33.9-3.6-3.9-1.8,35.8-7.5c-49.4,4.9,2.1-20.5-49.8-12.5c46-5.8,19.5-10.1,58.8-17.7
						c-11.3,0.2-21.7,2.7-16.1-4c-3.3-0.3-7.5-1-10-1.5c0.3-0.2,0.5-0.3,0.8-0.5c-0.4,0.1-0.9,0.2-1.3,0.4c-1.7-0.3-2-0.3-0.5,0.1
						c-5,1.6-10.9,2.9-17.2,3.4c-26-3.3-25.2-14-38.6-17.6c5.4-4,13,1.7,25.1-0.5l-20.1-5.4c25.2-0.5,41.8-10.6,56.5-1.2l1.1-8.4
						c14.1-5,19.7-11.8,9.1-16c5.4-4-27.8-10.1-8.1-6.6l-15.6-13.3l6.3-0.1c3.2-13.1-41.6-26.9,3.7-41.9c-6.3-4.4-14.1-9-7-16.3
						l21.8-1.4c-7.6-5.7,21.8-17-0.9-19.4c58.5-6.1,12.8-27.4,23.2-37.4l-28.4-0.4c1.6-6.8-6.5-13.4-17.9-21.9l-25.1,0.5
						c-20.6-7.3,17.9-18.8,15.3-30.4c9.6,0.8,7.1,3.7,1.3,5.8c56.7-13.8-41.3-29.2,0.1-41.7c-9.1-3.1-6-5.4,0.3-7.6
						c0.1,0.3,0.5,0.6,1.3,0.8c0.3-0.3,0.4-0.8,0.3-1.3c4.3-1.4,9.3-2.8,13.4-4.3c-6.1,1.3-11.1,2.6-13.5,3.7
						c-0.5-2.4-3.6-6.1-9.9-9.7l27-1.5c-0.4-0.3-0.3-0.5-0.8-0.8c10-3.5-12.8-2.8-33.1-1c-4.4-1.8-9.8-3.5-16.3-4.7
						c43.5-2.9-14.7-9.4,31.8-13.3c-22.6-2.4-17-18-64.7-19.9c6.2-0.1,9.2-1.2,9.5,0.8c5.4-4,10.9-8-2.6-11.6l34.3-1.7l-46.1-8.7
						c20.9-5.3,33-7.5,59.4-2.2c-40.6-12.7-15.3-10.3-55.5-21.1l22.2,0.5c-0.8-3.9-30.5-10-12.2-12.4c42.1-8.6,5.8-42.8,45-65
						c-65.3,4.3,29.3-10.3-21.3-11.2c15.4-1.3,24.1-4.4,37.6-0.8c-15.2-11.3,24.5-17-18.2-24.8c15.5-1.3,22.6,2.4,31.8,1.3
						c-3.3-0.9-13.4-3.6-4.2-4.8c9.2-1.2,13,1.7,19.7,3.5c-2.6-11.6-50.2-12.7-94.8-13.6c21.1-5.9,18.2-8.8-11.1-13
						c14.6-2,29.9-5.4,35.1,1.7c2.1-4,21.4-24.7-14.4-25.1c9.1-1.3,2.7-5.7-1.5-6.7c2.1-9.1,5.4-9.9,2-18.8l-5.9,2.5
						c-43.2-3.5-9.6-7.4-14.8-14.6l4.4,0.2c31.1-16.5-14.9-7.1,20.6-23.4l-26.9,0.9c-57.8-1.5,34.1-14.4,12-23.8l-15.3,3.4
						c-19.8-5.2,78.6-14.4,85.8-19.6c5-1.1,8.1,1.8,11.8,3.4c34.1-13.5-35.2-1.8-43.4-11.8c19-1.9,48.3,2.4,51.8-4.4
						c15.4-3.4-61.6-19.7-25.2-29c-14.6,2-29.2,4.1-40.2-0.6c-5.2-7.2,55.3-19.4,9.2-25.9c4-0.9,7.8-1.3,11.5-1.3
						c-11.9-5.5-19.8-17.8-44.8-21.2c92.8-5.1-45.1-34.1,40.4-34l-4.6-16.9l8.7,0.4c5.7-10.8-14.8-14.6-35.4-18.4
						c5.8-2.5,13.8-0.7,18.3-0.5c17.3-15.8,13.6-17.3-29-30.6l27.8-1.4c-16.1-3.6,43.5-22.8,11.2-38.3c3.1,0.2,8.5,0.5,12.4,1.7
						c-32.6-17.4,77-41.7-24.1-48.1l-24.9-11.5c-7.9,14.9-43.9-2.2-60.7,3.9c-5.9-5.8,30.5-15.1,35.7-7.9l-5.1,1.1
						c52.7,2.6,18.7-18.5,54.5-18.1c-2.6-29.2,26.6-57.8,28.8-85.2l-41,3.2l2.4-9.6c9.5-2.5,32-3.4,30.4,3.5
						c23.2-3.6-19.4-11.4-28.4-11.6c16.6-13.3,47.8,5.2,48.8,1.1l-3.1-5.6l-4.8,1.3c-16.7-4.5-34.5-4.9-32.5-13.1
						c8.2-5.2,25.3-2.7,26.8-4.7c2.9,0,4.3-0.7,1.2-3.1l3.5-12l-32.3,4.8c-15.9-5.3,1.7-11.3-34.9-5.8c56.5-8.2,20.3-44.9,37.8-49.9
						c-23.6-7.5-23.2-14.9-20.3-24c-6.7,2.3-43.1,3.6-38.6-4.3c75,2.9,32.6-14.4,86.5-20.8c-35.8,5.7-8.8-22.4-59.7-13.5
						c6.1-6.6,28.1-0.4,45.7-5.4c-29.1-15.7,18.9-34.5,9.1-53.9c-9.8-0.3-24.9,2.9-39.6-1.2l49.2-10.2c-4.8-3.8-56.9-3.5-22.7-10.5
						c-8.3,1-20.8,2.5-23.9-0.1c48-37.9-39.3-77.5,50.9-116c-19.1,5.2-21,1.7-21.7-2.2c-4.6,2.6-24.3-0.1-37.7,0.4l37.1-16.1
						c-37-2.9-2.5-17.3-37.9-19l6.4,5.1c-41.8-6.8-92.9,9.5-146.6,8.5c47.5,7.6-70.4,20-2.4,32.5c-10.9,2.8-17.3-2.3-29.7-0.9
						c23,3.2,27.8,7,17.5,14.1l-5.7-0.8c5.6,19.9-17.1,28.4-32.2,50.7l26.5-1.7c-3.6,4.8-11.9,5.8-18.5,8.1
						c40.2,5.5,2.3-13.5,46.6-8.5c-54,6.4-0.8,33.8-62.2,38.1c-0.3,7.4,30.7-2.2,30.4,5.2l-16.6,2l21.4,1.9
						c-3.5,4.8-24.3,7.3-38.3,7.5c1.7-1.2-3.9-3.3-5.1-4.6c-19.5,6.3,6.7,17.7,0.3,19.8l10.2-7.1c15.5,20.1-6.3,44.7,27.5,64.2
						l12.5-1.5c23.2,14.9-13.8,11.9-3,28.2l-3-0.6c12.5,3.3,18.8,7.6,17.3,12.1c-14.7-4.1-28.5,7.8-44.7,2.3
						c24.9,16.1,19.5,8,66,18.6l-20.8,2.5c18.8,3.6,28.7,3.9,34.1,12.1c-17.8-6.7-31.6,5.2-55.2-2.3c-45.4,17.1,45.9,25.4-20.6,33.2
						c57.5,7.9,31.9-14.8,44.2-10.4c18.8-3.7,43,6.5,37.2,11.8c-1.3,5.5-73.5,9.3-72.4,23c0.3-1.4-4.1-1.5-3.8-2.8
						c-14.7,5.1,19.9,10.1-4,16.4c34.8,3.5-2,8.2,42.3,9.2l-10.3-12.6c11.6,7.1,63.5,13.8,38.3,25.6c-8.9-0.9-20.7-4.4-27.3-6.8
						c-13.1,3.4,8.7,6.6-4.8,10.2c-44.4-1-9.7-15.3-43.5-23c-18.7,3.7,32.1,14.5-15.9,10.6c61.1,5.5-7.7,13.5,38.9,22.8l-26.6-0.6
						c4.2,1.5,16.7,4.5,16.1,7.2l-34.5-4.9c29.4,7.5-25.7,14.5-9.7,21.7c-0.8-15.1,32-3.4,51.4-9.8c35.6,18.7-69.5,10.7-56.8,31.6
						c-3.7-2.8,16-10.6,28.3-6.2c-5.5,4-15.7,9.2-29.6,11.7c5.5,13.8,27.3-2.1,43.7,3.8c-32.4,4.7,13.2,6.8,23.5,12.9l-27,0
						c-17.3,15.8,56.3,4.2,35.4,18.4l-37.5-6l9.7,7.4l-30.7-1.5c22.8,8.1,16.9,10.6,8.3,18.5c19-1.8,49,1,49.9,8
						c-16,4.8-25.7-2.7-21.8,7.2c-16.9-2.2-38.1-4.7-13.2-9c-8.8-0.4-17-2.2-25.7-2.7c-18.5,5.1-4.2,12.9-4,16.5
						c1-1.4,2.5-3,6.3-3.9l37.4,14.4c-10.1,2.3-18.3,0.5-26.3-1.3c2.9,2.9,15.3,4.9,17.7,9.2c-22-1.1-44.6-0.8-55-6.9l24.4,13.7
						c-9.5,0.9-26.2,7-34.3,5.2c-12.9,7.6,42.6,18.6,25.6,28.7c4.3,0.5,8.3,1.6,11.5,3.7c-5,9.4-31.9,17.8-1.8,29l-39.4,6.4
						c8.9,8.8,49.6-8.6,64.5,6c12.5,10.3-33.6,3.9-44.5,7.5c19.9,5.1,60.2,14.1,28.2,23.6C1097.1,821.9,1103,819.4,1100,816.5z
						 M1117.5,924.6c-5.7-2.1-23.2-6.3-7.2-7.8C1141.2,919.2,1126.4,921,1117.5,924.6z M1182.5,1089c-8.9-1.6-4.5-4,5.7-6.7
						C1190.5,1084.3,1189.4,1086.6,1182.5,1089z M1370.6,1547.1c-0.4-0.1-0.8-0.2-1.3-0.2
						C1379.8,1542.2,1375.7,1543.8,1370.6,1547.1z M1358.9,1556.8c3.8,1,7.5,0.9,11.3,0.5c-6.8-0.7-7.3-2.9-5.4-5.3
						C1357.7,1552.6,1352.8,1553.9,1358.9,1556.8z M1348.3,514.2l-7.1,1.9C1333.4,511.9,1340.4,513,1348.3,514.2z"/>
					<path class="st1" d="M1145.6,1070.4c4.6-0.6,9.6-0.8,14.7-0.9C1155.7,1068.7,1150.4,1068.7,1145.6,1070.4z"/>
					<path class="st1" d="M1085.8,749.2c0.2-0.1,0.1-0.2,0.3-0.3c-1.6-0.2-3.3-0.3-4.9-0.3L1085.8,749.2z"/>
					<path class="st1" d="M1129.8,1406.4c3.9-2,8.8-3.1,13.9-3.9C1137.2,1402.4,1131.6,1403.4,1129.8,1406.4z"/>
					<path class="st1" d="M1404.8,1608.2l-7-6.2c1.3,3-4.6,4.1-8.9,5.6C1395.2,1607.5,1404.4,1606.3,1404.8,1608.2z"/>
					<path class="st1" d="M1237.6,1662.2c3.3,0.9,0.4,1.9,3.7,2.8l12.6-0.2C1253.1,1660.9,1243,1658.2,1237.6,1662.2z"/>
					<path class="st1" d="M1315,1614c-22.7,0.5-15,4.4-10.8,8.7c-0.1-0.3-0.3-0.5,0-0.8C1336,1623.3,1325.5,1618.6,1315,1614z"/>
					<path class="st1" d="M1305,1623.8c1.1,1.3,1.7,2.7,0.6,4C1318.3,1628.3,1308.2,1626.2,1305,1623.8z"/>
					<path class="st1" d="M1374,1569.1c-5.9,2.1,29.1,1.3,19.8,2.5C1422.7,1573.9,1358.8,1557.8,1374,1569.1z"/>
					<polygon class="st1" points="1240.2,1617.5 1268.2,1616 1245.6,1613.5 					"/>
					<path class="st1" d="M1260.8,1583.1l-7.8,7c4.7-0.1,7.5,0.8,9.6,1.9C1263.5,1587.7,1269.1,1583,1260.8,1583.1z"/>
					<path class="st1" d="M1262.6,1592c-0.5,2.2,0.1,4.4,4.6,5.6C1266.9,1596.3,1266,1593.7,1262.6,1592z"/>
					<polygon class="st1" points="1231.7,1608 1237.6,1606 1239.6,1601 					"/>
					<path class="st1" d="M1266.2,1508.3l-8-7.6c-9.6-0.8-15.5,1.3-11.7,4.1C1253.2,1506.7,1256.9,1509.5,1266.2,1508.3z"/>
					<path class="st1" d="M1189.3,1531.3c5.8-2.1,12.1-2.2,21.3-3.4l-34.8-0.2L1189.3,1531.3z"/>
					<path class="st1" d="M1181.2,1509.1c-9.7-0.8-27.7-11-25.5-1.4C1165.3,1508.5,1173.3,1516.1,1181.2,1509.1z"/>
					<polygon class="st1" points="1225.2,1394.7 1225.6,1396.6 1282.7,1396.3 					"/>
					<path class="st1" d="M1088.8,1293.8c-13.7,9,35.2,2.1,18.1,10.3c13.5,2.1,13.9-6.6,25.6-4.5
						C1118.2,1294.1,1126.3,1291.3,1088.8,1293.8z"/>
					<path class="st1" d="M1132.5,1299.6c2.2,0.9,5,1.8,8.7,2.8C1137.6,1300.8,1134.8,1300,1132.5,1299.6z"/>
					<polygon class="st1" points="1377.2,160.8 1389.1,155 1369.9,158.8 					"/>
					<path class="st1" d="M1334.9,149.7l36.3-1.4l-32.9-3.5C1339.9,146.2,1343.1,148.7,1334.9,149.7z"/>
					<path class="st1" d="M1044.2,940.7l8.8,0.4c9.5-0.9,10.2-2.3,11.6-5L1044.2,940.7z"/>
					<polygon class="st1" points="1071.5,862.2 1070.7,863.5 1103.6,861 					"/>
					<path class="st1" d="M1029.5,796.3c-1.4,2.7,6,5.9,4.6,8.6C1028.2,799,1070.5,795.6,1029.5,796.3z"/>
				</g>
			</g>
		</g>
	</g>
</g>
<g>
	<line class="st0" x1="1745.6" y1="164.9" x2="1745.6" y2="1911.3"/>
	<g>
		<g>
			<g>
				<g>
					<path class="st1" d="M1881.9,1909.3c-2.1,2.6,21.4,1.7,25.6,2C1902.3,1907,1875.8,1909.4,1881.9,1909.3z"/>
					<polygon class="st1" points="1828.6,1866.7 1838.2,1867.4 1814.8,1861.2 					"/>
					<path class="st1" d="M1829.1,1826.9c-40,3.8,6.5,14.4-7.8,21.5l-9.1,1.2l32.2,3.2C1839.3,1844.2,1817.9,1833,1829.1,1826.9z"/>
					<path class="st1" d="M1915.5,1805.7c-15.6,1.3-13.4-4.6-4.9,4.9c1.7-0.5,2.7-0.6,3.9-0.9
						C1914.4,1808.9,1914.4,1807.7,1915.5,1805.7z"/>
					<path class="st1" d="M1914.6,1809.7C1915.7,1813.9,1927.7,1807,1914.6,1809.7L1914.6,1809.7z"/>
					<path class="st1" d="M1905.7,1790.4l13.9,5.5c9.2-1.2,11.3-6.1,17.9-4.2C1929.9,1786,1920.8,1787.1,1905.7,1790.4z"/>
					<path class="st1" d="M1876.5,1785.1l5.9,2.9C1886.3,1787.5,1887.6,1786.7,1876.5,1785.1z"/>
					<path class="st1" d="M1894.8,1794.1l-12.4-6.1c-6.5,0.8-19.4,0.9,4.5,2.8C1875,1790.3,1886.4,1791.5,1894.8,1794.1z"/>
					<path class="st1" d="M1888.7,1797.5c-8.7,3.1-14.2,7.1-28,1.6C1866.2,1809.6,1894.3,1808.1,1888.7,1797.5z"/>
					<path class="st1" d="M1787.7,1824.9l-11.7,4.1l13.4,3.6C1782.8,1830.8,1800.3,1824.6,1787.7,1824.9z"/>
					<path class="st1" d="M1926.4,1756c-8.5-0.3-22.7,1.9-33.5,2.3l9.8,4.1C1908.4,1760.2,1913.8,1756.2,1926.4,1756z"/>
					<path class="st1" d="M1892.9,1758.2l-14.6-6.1C1876.5,1757.6,1883.5,1758.6,1892.9,1758.2z"/>
					<polygon class="st1" points="1832.1,1784.1 1862.8,1794.2 1831.7,1782.2 					"/>
					<polygon class="st1" points="1927.5,1732.7 1947.2,1736.1 1917.4,1730 					"/>
					<path class="st1" d="M1924,1717.2c16.3,2.6,27.6-3.5,37.6-0.8c-2.9-4.2-16.9-7.8-29.5-11
						C1939.2,1708.8,1937.4,1712.5,1924,1717.2z"/>
					<path class="st1" d="M1913.8,1700c3.9,1.7,10.9,3.5,18.3,5.4C1928.4,1703.6,1923,1701.8,1913.8,1700z"/>
					<path class="st1" d="M1882.5,1741.7c5.1-0.5,18.6-1.4,24.3-4.8l-23.9,2.4C1882.7,1740.1,1882.6,1740.9,1882.5,1741.7z"/>
					<path class="st1" d="M1882,1739.4l0.8-0.1c0.5-2.6,1.1-4.4,1.3-5.2C1883.9,1734.8,1883.3,1736.4,1882,1739.4z"/>
					<path class="st1" d="M1882.4,1742.3c0.1-0.2,0.1-0.4,0.1-0.6C1880.1,1742,1879.3,1742.1,1882.4,1742.3z"/>
					<path class="st1" d="M1853.8,1768.1c-13.4-3.6-27.7-11.1-48.1-3.8C1822.1,1766.9,1833.7,1762.8,1853.8,1768.1z"/>
					<path class="st1" d="M1852.4,1745.3l-5.5,6.5c6.3-0.1,15.5-1.3,22.2,0.5L1852.4,1745.3z"/>
					<polygon class="st1" points="1844.8,1742.2 1852.4,1745.3 1854.5,1742.9 					"/>
					<path class="st1" d="M1891.4,1711.1c-10.4-2.8-11.3-5.9-13-9.3c-4.7,3.7-7.2,7.5-7.2,11.2
						C1878.8,1713.4,1892.2,1715,1891.4,1711.1z"/>
					<path class="st1" d="M1884.8,1724.8c-0.5-0.2-0.8-0.4-1.4-0.6C1881.4,1724.6,1880.7,1724.9,1884.8,1724.8z"/>
					<path class="st1" d="M1878.6,1667.7c-1.3,0.2-3,0.4-4.4,0.5c1.4,0,2.7,0.1,4.1,0.1L1878.6,1667.7z"/>
					<path class="st1" d="M1866.8,1713.6c-4.6,2.8,1.2,4.5,8.6,6c-2.4-2.1-4-4.3-4.2-6.7C1867.9,1712.7,1865.6,1712.7,1866.8,1713.6
						z"/>
					<path class="st1" d="M1902.6,1690.5c-5,1.5-9.2,3.1-13.2,4.8C1897,1693.9,1908.8,1691,1902.6,1690.5z"/>
					<path class="st1" d="M1890,1723.3c0.4,0.1,0.8,0.3,1.1,0.4C1896.2,1722.8,1893.7,1722.9,1890,1723.3z"/>
					<path class="st1" d="M1890,1723.3c-3.4-1.4-9.4-2.6-14.6-3.7c1.9,1.7,4.5,3.3,8,4.6C1885.1,1723.9,1887.7,1723.5,1890,1723.3z"
						/>
					<path class="st1" d="M1725,1657.4c22.2,0.5,42.7,7.8,18.9,14.1c16.6,6.2,89.6,2.2,130.4-3.3c-9.7-0.2-18.6-0.2-31.7-6.6
						c-12.1,2.2-28.3,14.2-48.4,8.8c-11.4-8.5,7.8-7,19.6-11.1c-27.6,3.5-40.2-10.8-80.9-8.9l14.3,7.4
						C1740.8,1658,1730.8,1655.3,1725,1657.4z"/>
					<path class="st1" d="M1872,1680.4l2.7,2.6c3.9-3,12.7-5.2,30.1-9.1c-10.8-4.4-19.1-5.3-26.4-5.6l-3.1,13L1872,1680.4z"/>
					<path class="st1" d="M1874.8,1694.9c-24.1-2.1-34.4-8.4-60.5-4.5c1.7,7.7,20.2,5.4,30.6,10c-6-12.5,13.4,3.6,27.1-5.4
						c4.1,2.5,5.4,4.7,6.4,6.7c2.9-2.2,6.6-4.4,11-6.5c-0.5,0.1-1,0.2-1.5,0.3l0.1,0.1c-0.2,0-0.2,0-0.4,0c-3,0.5-4.8,0.7-3.1,0.1
						c-0.3,0-0.4-0.2-0.5-0.3c-3.4-0.1-6.3-0.3-9.1-0.6c5-3.6,6.3-0.6,9.1,0.6c1.2,0,2.3,0.1,3.6,0.2c0.1,0,0.2,0,0.3,0l-13.2-12.5
						C1871.4,1685.7,1872.1,1689,1874.8,1694.9z"/>
					<path class="st1" d="M1753.8,1757.7c2.1-0.4,3.9-0.4,5.6-0.4C1756.4,1756.4,1754.4,1756.1,1753.8,1757.7z"/>
					<path class="st1" d="M1768.4,1752.5c3.4,0.9,13,1.7,10.5,4.6c-7.2,2.6-11.6,0-19.5,0.1c6.4,1.8,17.3,6.2,29,0.6l-3.3-0.9
						c8.3-5,38.4-11.5,41.7-10.6C1805.1,1747.9,1789.7,1749.2,1768.4,1752.5z"/>
					<path class="st1" d="M1815.4,1723.3l-11.8-10.4l-20.9,5.3l12.5-0.3C1790.3,1723.9,1805.8,1722.6,1815.4,1723.3z"/>
					<polygon class="st1" points="1890.6,1666.5 1916.1,1667.9 1880.1,1661.9 					"/>
					<polygon class="st1" points="1887.5,1653 1909.7,1653.5 1896.4,1649.9 					"/>
					<path class="st1" d="M1612.6,889.5l-6.3-3.1C1608.2,887.9,1610.3,888.8,1612.6,889.5z"/>
					<path class="st1" d="M1611.1,911.6l10.9,0.5C1616,911.1,1611.5,910.7,1611.1,911.6z"/>
					<path class="st1" d="M1885.1,1320.7c20.7-4.5,52.8-9.4,27.9-8.9l-24.3,1.4C1893,1316.3,1890.3,1318.7,1885.1,1320.7z"/>
					<path class="st1" d="M1740,1093.1c-2.4,0.4-4.9,0.9-7.4,1.3c8.3,1.1,16,2.1,23.2,3C1750.9,1096.1,1745.6,1094.7,1740,1093.1z"
						/>
					<path class="st1" d="M1639.5,1090l15.7-5.9C1649.7,1085.4,1644.4,1087.3,1639.5,1090z"/>
					<path class="st1" d="M1586.8,768.5l-24.7-3.6C1562.2,770.5,1574.7,768.1,1586.8,768.5z"/>
					<path class="st1" d="M1878.6,1514.4c9.5-3.8,13.5-6.9,14.7-9.6C1879.3,1509.4,1858.4,1513.2,1878.6,1514.4z"/>
					<path class="st1" d="M1870.4,898.2c-4.4-1.9-9.4-2.7-14.8-2.6C1859.8,897.5,1864.4,898.6,1870.4,898.2z"/>
					<path class="st1" d="M1893.2,1493.7c-2.4,0.7-3.7,1.3-5.7,2c4.1,2.8,7.4,5.6,5.8,9.1C1903.7,1501.4,1910,1497.5,1893.2,1493.7z
						"/>
					<path class="st1" d="M1606.9,329.8c1.1-0.3,1.6-0.7,2.9-1C1606.6,328.7,1606.4,329.2,1606.9,329.8z"/>
					<path class="st1" d="M1852.1,202c1.5,1.3,1.5,3.3,1.9,5.2C1855.6,206.3,1855.5,204.7,1852.1,202z"/>
					<path class="st1" d="M1898.2,1598.5C1899.7,1601.4,1900.8,1599,1898.2,1598.5L1898.2,1598.5z"/>
					<path class="st1" d="M1802.1,1612.5c-2.7-0.6-6.2-1.1-11.8-1.1C1796.1,1611.6,1799.8,1612,1802.1,1612.5z"/>
					<path class="st1" d="M1742,1465.1c0-0.1,0.1-0.2,0.1-0.2C1737.3,1465.7,1738.2,1465.6,1742,1465.1z"/>
					<path class="st1" d="M1887.1,1602.8c3-1.1,5.5-2.3,7.2-3.7C1892.4,1599.8,1890.1,1600.9,1887.1,1602.8z"/>
					<path class="st1" d="M1898.6,1602.3c-1.1,1-1.7,1.8-2.4,2.5C1900.3,1605.1,1902.8,1604.8,1898.6,1602.3z"/>
					<path class="st1" d="M1896.8,1594.5c0.4,1.6-0.8,3.2-2.5,4.6c1.6-0.6,3-0.8,3.8-0.6C1897.8,1597.7,1897.3,1596.5,1896.8,1594.5
						z"/>
					<path class="st1" d="M1672,564.9c0.8-0.2,1.3-0.4,2.3-0.6C1664.2,561.4,1665.8,562.6,1672,564.9z"/>
					<path class="st1" d="M1632.8,1246c0.2,0.1,0.9,0.2,1.2,0.3c0.2-0.1,0.6-0.3,0.9-0.4L1632.8,1246z"/>
					<path class="st1" d="M1614.7,1235.7c30.2,4.4,26.5,6.9,20.1,10.2l70.1-3.4L1614.7,1235.7z"/>
					<path class="st1" d="M1605.6,836.4l-21.8,7.2c-35.9-8.7-23.5-15.1-54.2-8.3c76.1,1,7.8,28.1,83.8,29.1l-16,4.8
						c0.7-1.4-3.7-1.6-3-2.9c-36.4,9.3,55,6.9,44.2,18.8c-5.8,4.2-16.9,7.1-25.9,4.2l18.8,9.3c-1.5,2.7-14.7,2-13.2-0.6l6.1,14.2
						l-2.2-0.1c11.9,2,30.4,6.6,38.2,8.8c-10.9,3.6-8.1-1.8-17.6-0.9l18.4,7.8c-19.7,3.2-38.8-3.3-36-8.7
						c-75.9,7.3,19.1,6.5-25.2,22.3l-9.6-7.4c-43.1,4.8-27.5,10.6-54.4,18.9c14.1-2,67.8-16.8,86.7-8.2c-5.7,2.4-8.5,5.6,6.8,10.1
						c-27,0-20.4,4.5-18.9,10.1l-35.8-0.4c10.3,6.1,28.6,5.6,44.7,9.2c-3.5,6.8-31.3,8.2-54.7,9.8c-5.7,10.8,44.5-7.5,51.2,5.3
						c-13.7,9,0.9,15.3,22.4,26.1c-12.3,6.3-21.9-1.1-32.2,1.2l28.6,5.6c-0.7,1.4-9.5,0.9-13.9,0.7c11.1,4.7,35.8,0.4,45.5,7.8
						c39.5,2-57.7,15.2-12.9,24.3c-10.2,2.3-22-1.1-35.8-0.4c29.4,12.6,21.4,10.8,60.9,21.1l-23.5,8.8c26.9-6.5,58.7,1.8,84.9,9
						c13-2.3,24.4-4.2,29.8-5.6l19.2,11.5c-5.9,1.4-18.2,0.2-33.1-1.7c3,0.8,5.9,1.5,8.6,2.1c-13.2,4.1-33.9,2-53.9-1
						c7.1-1.4,14.6-2.8,22.1-4.2c-21.8-2.8-45.9-5.5-66.8-4.9c4.1,0.7,7.7,2.2,9.7,3.8c-5.9-0.7-11.2-1.2-14.8-0.9
						c-3.8,0.4,4.2,1.6,13.3,3.5l-39.9,2.6l15.9,0.6l-25,15.1c40.2,10.8,99.4,20.2,115.9,37.3c-29.3-4.3-47.8-0.9-82.5-1.1
						c36.7-4.7-15.6-13.3-8.1-22.1c-3.9,4.6-20.4,3.6-26.2,2.4l33.4,15.8c-28.4-0.4-21.3,3.4-33,7.5c56.1-3.1,37.4,11.8,54.6,18.2
						c-18.8,0.4-38.1-1.1-33.5-9c-42.2,8.7,65.9,11.2,30,19.7c-0.5-1.9,2.4-3-7.1-3.7c16.7,4.5,3.5,15.4-12.9,12.9l-0.4-1.9
						c-6.6,12.7-0.4,38.8,47.2,40.7c-6.2,0.1-57.4-1.7-67-2.4l160.3,22.7c-40.9-2-138.3,5.7-161.4-4.9c-5.8,3-12.6,6.8,1.8,13.2
						c5.8-2.1,59.1-5.2,62.9-2.3c-45.6,7.8-24.4,5.4-63.2,15c8.8-3.1,72.9,0.3,70.9,5.2c-9.6-0.8-63.3,0.4-70-1.4l63,12.2
						c-11.3-3-53.4-0.5-71.2,2.2c12.3-1.3-1.1,10.6,5.1,13.8l14.6-5.2c-9.5,13.8,88.6,13.6,85.3,27.3c-13-1.7-80.1-4.1-88,2.9
						c32.3,3.2,155.1,14.1,180,26.2l-18.4,2.3l21,9.3c-48.5-5.8-150.7-22-190.4-30.8c-14.6,5.2-21.7,1.4-20.1,9.2
						c-17.3,2.7-26.2-4.2-27.2-6.5l-11.2,18c37.7-0.8,37.8,13.7,69.1,13.1l-39-19.5c37.6-0.8,106.9,11.3,100.2,24
						c-15,3.2-67-2.4-79.6-2.2c13,1.7,24.7,12.1,15.6,13.3l-20.1-5.4c-14.2,7.1,49.9,11.6,14,20.1c-2.4,2.9-48.5,8.8-26.2,9.3
						c43-4.8,175.9-5.7,208.1-2.5c-2.9,1-41.1,15.4-62.3,18.8c-33.7,4.8-80.3-7.3-109.2-3.1c10.3,0.2,23,2.9,27,4
						c-8.8,3.1-31.9-1.3-27.2,5.4c38.2,1.1-3.2,13.7,32.3,3.2c10.9,6.6-7.8,7-6.2,14.7c24.7-2.5,83.9,6.9,94.8,13.5
						c-9.7-0.4-22.3,1.1-28.1,1.8c-3.4,13.5-20.8,20.7-21.1,33.2c-9.2,1.2-20.4,7.2-36.9,4.6c6.8,1.8,19.7,3.5,20.6,7.3
						c-33,7.5-5.1-8.6-44.8-2.9c22.2,0.5,30.6,10,44.5,15.5c34.3-1.7,6.6-12.7-7.3-18.3c47.3,0,96.7,9.6,118.6,22.7
						c11.7,10.4-30.5,4.5-23.8,6.3c-8.3,19.6,82.5,16.7,48.4,32.9c-30.1,6.5-59.9,0.3-81.6,1.7c-11.4-8.5,19.1-13,17.9-18.8
						l-14.2,7.1c-10-2.7-17.6-8.4-8.9-11.5c-27,5.4-5.2,33.1-30.2,48.2c10.1,2.7,20.5,7.3,32.6,5.1l-4.2-4.8
						c24.3-4.4,33.6,9,44.9,2.9c17.1,6.4,43.9,13.6,30.2,22.6l-34.3,1.7c10-0.2,20.5-5.9,10-8.4c15.2,3.8-46.5,13.8-1.5,18l23.8-6.3
						c17.3,6.4,53.7,14.4,42.9,22.4c33.9-3.6-3.9-1.8,35.8-7.5c-49.4,4.9,2.1-20.5-49.8-12.5c46-5.8,19.5-10.1,58.8-17.7
						c-11.3,0.2-21.7,2.7-16.1-4c-3.3-0.3-7.5-1-10-1.5c0.3-0.2,0.5-0.3,0.8-0.5c-0.4,0.1-0.9,0.2-1.3,0.4c-1.7-0.3-2-0.3-0.5,0.1
						c-5,1.6-10.9,2.9-17.2,3.4c-26-3.3-25.2-14-38.6-17.6c5.4-4,13,1.7,25.1-0.5l-20.1-5.4c25.2-0.5,41.8-10.6,56.5-1.2l1.1-8.4
						c14.1-5,19.7-11.8,9.1-16c5.4-4-27.8-10.1-8.1-6.6l-15.6-13.3l6.3-0.1c3.2-13.1-41.6-26.9,3.7-41.9c-6.3-4.4-14.1-9-7-16.3
						l21.8-1.4c-7.6-5.7,21.8-17-0.9-19.4c58.5-6.1,12.8-27.4,23.2-37.4l-28.4-0.4c1.6-6.8-6.5-13.4-17.9-21.9l-25.1,0.5
						c-20.6-7.3,17.9-18.8,15.3-30.4c9.6,0.8,7.1,3.7,1.3,5.8c56.7-13.8-41.3-29.2,0.1-41.7c-9.1-3.1-6-5.4,0.3-7.6
						c0.1,0.3,0.5,0.6,1.3,0.8c0.3-0.3,0.4-0.8,0.3-1.3c4.3-1.4,9.3-2.8,13.4-4.3c-6.1,1.3-11.1,2.6-13.5,3.7
						c-0.5-2.4-3.6-6.1-9.9-9.7l27-1.5c-0.4-0.3-0.3-0.5-0.8-0.8c10-3.5-12.8-2.8-33.1-1c-4.4-1.8-9.8-3.5-16.3-4.7
						c43.5-2.9-14.7-9.4,31.8-13.3c-22.6-2.4-17-18-64.7-19.9c6.2-0.1,9.2-1.2,9.5,0.8c5.4-4,10.9-8-2.6-11.6l34.3-1.7l-46.1-8.7
						c20.9-5.3,33-7.5,59.4-2.2c-40.6-12.7-15.3-10.3-55.5-21.1l22.2,0.5c-0.8-3.9-30.5-10-12.2-12.4c42.1-8.6,5.8-42.8,45-65
						c-65.3,4.3,29.3-10.3-21.3-11.2c15.4-1.3,24.1-4.4,37.6-0.8c-15.2-11.3,24.5-17-18.2-24.8c15.5-1.3,22.6,2.4,31.8,1.3
						c-3.3-0.9-13.4-3.6-4.2-4.8c9.2-1.2,13,1.7,19.7,3.5c-2.6-11.6-50.2-12.7-94.8-13.6c21.1-5.9,18.2-8.8-11.1-13
						c14.6-2,29.9-5.4,35.1,1.7c2.1-4,21.4-24.7-14.4-25.1c9.1-1.3,2.7-5.7-1.5-6.7c2.1-9.1,5.4-9.9,2-18.8l-5.9,2.5
						c-43.2-3.5-9.6-7.4-14.8-14.6l4.4,0.2c31.1-16.5-14.9-7.1,20.6-23.4l-26.9,0.9c-57.8-1.5,34.1-14.4,12-23.8l-15.3,3.4
						c-19.8-5.2,78.6-14.4,85.8-19.6c5-1.1,8.1,1.8,11.8,3.4c34.1-13.5-35.2-1.8-43.4-11.8c19-1.9,48.3,2.4,51.8-4.4
						c15.4-3.4-61.6-19.7-25.2-29c-14.6,2-29.2,4.1-40.2-0.6c-5.2-7.2,55.3-19.4,9.2-25.9c4-0.9,7.8-1.3,11.5-1.3
						c-11.9-5.5-19.8-17.8-44.8-21.2c92.8-5.1-45.1-34.1,40.4-34l-4.6-16.9l8.7,0.4c5.7-10.8-14.8-14.6-35.4-18.4
						c5.8-2.5,13.8-0.7,18.3-0.5c17.3-15.8,13.6-17.3-29-30.6l27.8-1.4c-16.1-3.6,43.5-22.8,11.2-38.3c3.1,0.2,8.5,0.5,12.4,1.7
						c-32.6-17.4,77-41.7-24.1-48.1l-24.9-11.5c-7.9,14.9-43.9-2.2-60.7,3.9c-5.9-5.8,30.5-15.1,35.7-7.9l-5.1,1.1
						c52.7,2.6,18.7-18.5,54.5-18.1c-2.6-29.2,26.6-57.8,28.8-85.2l-41,3.2l2.4-9.6c9.5-2.5,32-3.4,30.4,3.5
						c23.2-3.6-19.4-11.4-28.4-11.6c16.6-13.3,47.8,5.2,48.8,1.1l-3.1-5.6l-4.8,1.3c-16.7-4.5-34.5-4.9-32.5-13.1
						c8.2-5.2,25.3-2.7,26.8-4.7c2.9,0,4.3-0.7,1.2-3.1l3.5-12l-32.3,4.8c-15.9-5.3,1.7-11.3-34.9-5.8c56.5-8.2,20.3-44.9,37.8-49.9
						c-23.6-7.5-23.2-14.9-20.3-24c-6.7,2.3-43.1,3.6-38.6-4.3c75,2.9,32.6-14.4,86.5-20.8c-35.8,5.7-8.8-22.4-59.7-13.5
						c6.1-6.6,28.1-0.4,45.7-5.4c-29.1-15.7,18.9-34.5,9.1-53.9c-9.8-0.3-24.9,2.9-39.6-1.2l49.2-10.2c-4.8-3.8-56.9-3.5-22.7-10.5
						c-8.3,1-20.8,2.5-23.9-0.1c48-37.9-39.3-77.5,50.9-116c-19.1,5.2-21,1.7-21.7-2.2c-4.6,2.6-24.3-0.1-37.7,0.4l37.1-16.1
						c-37-2.9-2.5-17.3-37.9-19l6.4,5.1c-41.8-6.8-92.9,9.5-146.6,8.5c47.5,7.6-70.4,20-2.4,32.5c-10.9,2.8-17.3-2.3-29.7-0.9
						c23,3.2,27.8,7,17.5,14.1l-5.7-0.8c5.6,19.9-17.1,28.4-32.2,50.7l26.5-1.7c-3.6,4.8-11.9,5.8-18.5,8.1
						c40.2,5.5,2.3-13.5,46.6-8.5c-54,6.4-0.8,33.8-62.2,38.1c-0.3,7.4,30.7-2.2,30.4,5.2l-16.6,2l21.4,1.9
						c-3.5,4.8-24.3,7.3-38.3,7.5c1.7-1.2-3.9-3.3-5.1-4.6c-19.5,6.3,6.7,17.7,0.3,19.8l10.2-7.1c15.5,20.1-6.3,44.7,27.5,64.2
						l12.5-1.5c23.2,14.9-13.8,11.9-3,28.2l-3-0.6c12.5,3.3,18.8,7.6,17.3,12.1c-14.7-4.1-28.5,7.8-44.7,2.3
						c24.9,16.1,19.5,8,66,18.6l-20.8,2.5c18.8,3.6,28.7,3.9,34.1,12.1c-17.8-6.7-31.6,5.2-55.2-2.3c-45.4,17.1,45.9,25.4-20.6,33.2
						c57.5,7.9,31.9-14.8,44.2-10.4c18.8-3.7,43,6.5,37.2,11.8c-1.3,5.5-73.5,9.3-72.4,23c0.3-1.4-4.1-1.5-3.8-2.8
						c-14.7,5.1,19.9,10.1-4,16.4c34.8,3.5-2,8.2,42.3,9.2l-10.3-12.6c11.6,7.1,63.5,13.8,38.3,25.6c-8.9-0.9-20.7-4.4-27.3-6.8
						c-13.1,3.4,8.7,6.6-4.8,10.2c-44.4-1-9.7-15.3-43.5-23c-18.7,3.7,32.1,14.5-15.9,10.6c61.1,5.5-7.7,13.5,38.9,22.8l-26.6-0.6
						c4.2,1.5,16.7,4.5,16.1,7.2l-34.5-4.9c29.4,7.5-25.7,14.5-9.7,21.7c-0.8-15.1,32-3.4,51.4-9.8c35.6,18.7-69.5,10.7-56.8,31.6
						c-3.7-2.8,16-10.6,28.3-6.2c-5.5,4-15.7,9.2-29.6,11.7c5.5,13.8,27.3-2.1,43.7,3.8c-32.4,4.7,13.2,6.8,23.5,12.9l-27,0
						c-17.3,15.8,56.3,4.2,35.4,18.4l-37.5-6l9.7,7.4l-30.7-1.5c22.8,8.1,16.9,10.6,8.3,18.5c19-1.8,49,1,49.9,8
						c-16,4.8-25.7-2.7-21.8,7.2c-16.9-2.2-38.1-4.7-13.2-9c-8.8-0.4-17-2.2-25.7-2.7c-18.5,5.1-4.2,12.9-4,16.5
						c1-1.4,2.5-3,6.3-3.9l37.4,14.4c-10.1,2.3-18.3,0.5-26.3-1.3c2.9,2.9,15.3,4.9,17.7,9.2c-22-1.1-44.6-0.8-55-6.9l24.4,13.7
						c-9.5,0.9-26.2,7-34.3,5.2c-12.9,7.6,42.6,18.6,25.6,28.7c4.3,0.5,8.3,1.6,11.5,3.7c-5,9.4-31.9,17.8-1.8,29l-39.4,6.4
						c8.9,8.8,49.6-8.6,64.5,6c12.5,10.3-33.6,3.9-44.5,7.5c19.9,5.1,60.2,14.1,28.2,23.6C1602.7,841.8,1608.5,839.4,1605.6,836.4z
						 M1623,944.6c-5.7-2.1-23.2-6.3-7.2-7.8C1646.8,939.2,1631.9,941,1623,944.6z M1688.1,1109c-8.9-1.6-4.5-4,5.7-6.7
						C1696,1104.3,1695,1106.6,1688.1,1109z M1876.2,1567.1c-0.4-0.1-0.8-0.2-1.3-0.2C1885.4,1562.2,1881.2,1563.8,1876.2,1567.1z
						 M1864.4,1576.8c3.8,1,7.5,0.9,11.3,0.5c-6.8-0.7-7.3-2.9-5.4-5.3C1863.3,1572.6,1858.4,1573.9,1864.4,1576.8z M1853.8,534.2
						l-7.1,1.9C1839,531.8,1846,533,1853.8,534.2z"/>
					<path class="st1" d="M1651.1,1090.4c4.6-0.6,9.6-0.8,14.7-0.9C1661.2,1088.7,1656,1088.7,1651.1,1090.4z"/>
					<path class="st1" d="M1591.4,769.2c0.2-0.1,0.1-0.2,0.3-0.3c-1.6-0.2-3.3-0.3-4.9-0.3L1591.4,769.2z"/>
					<path class="st1" d="M1635.4,1426.4c3.9-2,8.8-3.1,13.9-3.9C1642.7,1422.4,1637.1,1423.3,1635.4,1426.4z"/>
					<path class="st1" d="M1910.4,1628.2l-7-6.2c1.3,3-4.6,4.1-8.9,5.6C1900.8,1627.5,1909.9,1626.3,1910.4,1628.2z"/>
					<path class="st1" d="M1743.2,1682.2c3.3,0.9,0.4,1.9,3.7,2.8l12.6-0.2C1758.6,1680.9,1748.5,1678.2,1743.2,1682.2z"/>
					<path class="st1" d="M1820.6,1634c-22.7,0.5-15,4.4-10.8,8.7c-0.1-0.3-0.3-0.5,0-0.8C1841.6,1643.3,1831.1,1638.6,1820.6,1634z
						"/>
					<path class="st1" d="M1810.5,1643.8c1.1,1.3,1.7,2.7,0.6,4C1823.9,1648.3,1813.8,1646.1,1810.5,1643.8z"/>
					<path class="st1" d="M1879.5,1589.1c-5.9,2.1,29.1,1.3,19.8,2.5C1928.2,1593.9,1864.3,1577.8,1879.5,1589.1z"/>
					<polygon class="st1" points="1745.7,1637.5 1773.8,1636 1751.2,1633.5 					"/>
					<path class="st1" d="M1766.3,1603.1l-7.8,7c4.7-0.1,7.5,0.8,9.6,1.9C1769,1607.7,1774.6,1603,1766.3,1603.1z"/>
					<path class="st1" d="M1768.1,1611.9c-0.5,2.2,0.1,4.4,4.6,5.6C1772.5,1616.3,1771.5,1613.7,1768.1,1611.9z"/>
					<polygon class="st1" points="1737.3,1628 1743.1,1625.9 1745.2,1621 					"/>
					<path class="st1" d="M1771.7,1528.3l-8-7.6c-9.6-0.8-15.5,1.3-11.7,4.1C1758.7,1526.6,1762.4,1529.5,1771.7,1528.3z"/>
					<path class="st1" d="M1694.9,1551.3c5.8-2.1,12.1-2.2,21.3-3.4l-34.8-0.2L1694.9,1551.3z"/>
					<path class="st1" d="M1686.8,1529.1c-9.7-0.8-27.7-11-25.5-1.4C1670.8,1528.5,1678.8,1536.1,1686.8,1529.1z"/>
					<polygon class="st1" points="1730.8,1414.7 1731.2,1416.6 1788.2,1416.3 					"/>
					<path class="st1" d="M1594.3,1313.8c-13.7,9,35.2,2.1,18.1,10.3c13.5,2.1,13.9-6.6,25.6-4.5
						C1623.8,1314.1,1631.8,1311.3,1594.3,1313.8z"/>
					<path class="st1" d="M1638,1319.6c2.2,0.9,5,1.8,8.7,2.8C1643.1,1320.8,1640.4,1320,1638,1319.6z"/>
					<polygon class="st1" points="1882.7,180.8 1894.6,175 1875.5,178.8 					"/>
					<path class="st1" d="M1840.4,169.7l36.3-1.4l-32.9-3.5C1845.5,166.2,1848.6,168.7,1840.4,169.7z"/>
					<path class="st1" d="M1549.8,960.7l8.8,0.4c9.5-0.9,10.2-2.3,11.6-5L1549.8,960.7z"/>
					<polygon class="st1" points="1577,882.2 1576.3,883.5 1609.1,881 					"/>
					<path class="st1" d="M1535.1,816.3c-1.4,2.7,6,5.9,4.6,8.6C1533.7,819,1576.1,815.6,1535.1,816.3z"/>
				</g>
			</g>
		</g>
	</g>
</g>
<g>
	<line class="st0" x1="1783.2" y1="251.5" x2="83.2" y2="1704.7"/>
	<g>
		<g>
			<g>
				<g>
					<path class="st1" d="M173.8,1806.7c-3.8,0.6,12.3,17.6,14.7,21.2C189.3,1820.3,169.7,1802.1,173.8,1806.7z"/>
					<polygon class="st1" points="180.6,1730.8 186.1,1738.7 177,1715.6 					"/>
					<path class="st1" d="M219.6,1698c-29.6-27.3-9.8,16.9-26,12l-7.1-5.9l17.8,27.1C209.5,1720.1,206.5,1694.5,219.6,1698z"/>
					<path class="st1" d="M296.5,1746c-11.4-10.7-4.2-14-8,0.4c1.6,0.9,2.3,1.5,3.4,2.3C292.6,1747.8,293.8,1746.9,296.5,1746z"/>
					<path class="st1" d="M291.9,1748.7C288.6,1753,303.1,1756.4,291.9,1748.7L291.9,1748.7z"/>
					<path class="st1" d="M305,1725.8l3.7,15.2c7.1,6,13.2,3.5,15.8,10.1C325,1740.6,317.9,1734.6,305,1725.8z"/>
					<path class="st1" d="M291.1,1699.3l1,6.9C295.2,1708.6,296.8,1709,291.1,1699.3z"/>
					<path class="st1" d="M294.3,1720.6l-2.2-14.5c-5-4.2-13.5-14,0.2,5.7C285.2,1702.4,291.4,1712.1,294.3,1720.6z"/>
					<path class="st1" d="M287,1718.8c-8.7-4-16.1-4.9-19.7-20C260.6,1711.8,280.4,1731.9,287,1718.8z"/>
					<path class="st1" d="M194.8,1664.9l-11.6-5.5l5.2,13.2C185.8,1666,203.1,1674.2,194.8,1664.9z"/>
					<path class="st1" d="M351.9,1712.9c-5.2-6.8-16.5-15.7-24-23.6l2.4,10.8C336.1,1702.8,343.5,1703.6,351.9,1712.9z"/>
					<path class="st1" d="M327.9,1689.3l-3.6-16.2C317.9,1676.4,321.5,1682.5,327.9,1689.3z"/>
					<polygon class="st1" points="263.2,1664.7 273.4,1696.4 264.9,1662.8 					"/>
					<polygon class="st1" points="375.3,1694.3 384.7,1712.2 371.4,1684.4 					"/>
					<path class="st1" d="M388.1,1678.9c8.1,14.5,21.3,18.1,25.2,27.9c2.2-5.7-3.4-19.3-8.5-31.6
						C406.1,1683.4,401.4,1685.1,388.1,1678.9z"/>
					<path class="st1" d="M398.2,1656.7c0.9,4.4,3.7,11.2,6.6,18.5C404.2,1670.8,402.4,1665.2,398.2,1656.7z"/>
					<path class="st1" d="M337.2,1667.7c3.8,3.5,13.4,13,20.5,14.5l-17.9-16.2C339,1666.5,338.1,1667.1,337.2,1667.7z"/>
					<path class="st1" d="M339.2,1665.4l0.6,0.5c2.9-1.8,5-2.9,5.9-3.3C344.9,1663,343,1663.9,339.2,1665.4z"/>
					<path class="st1" d="M336.6,1668.1c0.3-0.1,0.4-0.2,0.7-0.4C335.5,1666.1,334.8,1665.6,336.6,1668.1z"/>
					<path class="st1" d="M292.9,1667.9c-5.2-13.1-7.3-30.3-27.5-39.8C273.5,1642.7,285.1,1648.1,292.9,1667.9z"/>
					<path class="st1" d="M314.2,1647.9l-9.9,1.2c4.2,4.7,11.4,10.7,13.9,17.3L314.2,1647.9z"/>
					<polygon class="st1" points="312.4,1639.4 314.2,1647.9 317.9,1647.4 					"/>
					<path class="st1" d="M372.9,1649c-4-10.2-1.6-13.5,0.7-17.6c-6.7-0.5-12,0.8-15.6,3.8C362.4,1641.3,369.6,1652.9,372.9,1649z"
						/>
					<path class="st1" d="M355.1,1655.4c-0.2-0.6-0.1-1-0.3-1.6C353.2,1652.6,352.5,1652.4,355.1,1655.4z"/>
					<path class="st1" d="M406.8,1603.1c-1-0.8-2.3-1.9-3.4-2.9c0.9,1.1,1.7,2.1,2.6,3.2L406.8,1603.1z"/>
					<path class="st1" d="M354.5,1632.3c-5.7-1.2-3.5,4.6-0.3,11.6c0.5-3.6,1.6-6.6,3.8-8.7C356,1632.4,354.6,1630.7,354.5,1632.3z"
						/>
					<path class="st1" d="M400.2,1640.3c-4.7-2.6-9-4.4-13.2-6C393.3,1638.9,403.8,1645.5,400.2,1640.3z"/>
					<path class="st1" d="M360.1,1658.1c0.1,0.4,0.3,0.8,0.3,1.2C364.6,1662.4,362.9,1660.6,360.1,1658.1z"/>
					<path class="st1" d="M360.1,1658.1c-0.8-3.8-3.6-9.2-5.9-14.2c-0.4,2.8-0.3,6.1,0.7,9.9
						C356.3,1654.8,358.3,1656.5,360.1,1658.1z"/>
					<path class="st1" d="M317,1477.8c13.9,17.3,20.1,39-1.5,26.1c4.7,17.8,56.1,69.9,87.9,96.4c-6.1-7.5-11.9-14.3-14.2-29.6
						c-10.1-7.3-32.2-9.7-40-29.5c0.8-15.7,11.9,0.2,23.5,5.7c-21.4-18.1-15.6-39.6-43.8-68.9l2.1,17.1
						C326.7,1490.4,322.8,1480.5,317,1477.8z"/>
					<path class="st1" d="M390.1,1608.7l-0.8,4.3c5.4,0.4,13.3,5.4,28.4,15.3c-2.8-11.9-7.2-18.9-11.7-24.8l-14.6,8.4L390.1,1608.7z
						"/>
					<path class="st1" d="M377.8,1622.9c-13.7-20.1-14.2-33.1-34.9-49.8c-6.4,7.7,7.8,19.8,10.1,31.6c8.3-14.9,5.2,13.2,22.9,16.1
						c0.3,5.2-1.1,8-2.4,10.5c4.1,0.4,8.6,1.3,13.4,3c-0.5-0.3-0.8-0.6-1.3-0.9l0,0.1c-0.1-0.1-0.1-0.2-0.2-0.3
						c-2.5-1.8-3.8-3.1-2.1-2.3c-0.2-0.3-0.1-0.5-0.1-0.6c-2.1-2.6-3.8-5-5.4-7.4c6.8,0.8,4.6,4.3,5.4,7.4c0.7,0.9,1.4,1.9,2.2,2.9
						c0.1,0.1,0.2,0.1,0.2,0.2l3.6-20.5C384.5,1612.7,381.8,1615.9,377.8,1622.9z"/>
					<path class="st1" d="M238.1,1583.1c1.8,1.3,2.9,2.6,4,3.9C241,1584.1,240,1582.3,238.1,1583.1z"/>
					<path class="st1" d="M252.6,1589.9c1.3,3.3,6.8,11.3,2.3,11.8c-7.2-3.4-7.5-8.8-12.8-14.7c2.4,6.3,5.2,18.3,18.2,22.6l-1.3-3.2
						c10.3,2.1,36.1,19.6,37.4,22.9C281,1614,269.7,1603.3,252.6,1589.9z"/>
					<path class="st1" d="M311.6,1601.4l2.4-17.7l-18.7-11.5l8.4,9.3C294.7,1582.8,306,1593.5,311.6,1601.4z"/>
					<polygon class="st1" points="415.7,1611.3 431,1631.8 413.4,1599.4 					"/>
					<polygon class="st1" points="426.9,1597.7 440.9,1615 435.6,1601.8 					"/>
					<path class="st1" d="M991.4,753.3l-1.1-7.3C990.2,748.7,990.7,751.1,991.4,753.3z"/>
					<path class="st1" d="M968.9,770.6l6.6,8.7C972.6,774,970.1,770.2,968.9,770.6z"/>
					<path class="st1" d="M748.8,1319.3c17.8,12,43.5,32.3,26.8,13.8l-17.1-17.3C758.2,1321.6,754.1,1321.6,748.8,1319.3z"/>
					<path class="st1" d="M876,1019.7c-1.9-1.4-4-3-6.1-4.5c4.3,7.2,8.4,13.9,12.2,20.2C880.2,1030.4,878.1,1025.2,876,1019.7z"/>
					<path class="st1" d="M813.8,940.6l15.9,7C824.8,944.6,819.6,942.2,813.8,940.6z"/>
					<path class="st1" d="M1092.5,633.1l-12.6-21.8C1074.5,616.1,1085,623.5,1092.5,633.1z"/>
					<path class="st1" d="M556,1475.6c9.9,4,15.5,4.5,18.9,3.2C561.3,1472,544.1,1459.2,556,1475.6z"/>
					<path class="st1" d="M1150.5,956.6c-1-4.9-3.5-9.3-7-13.4C1144.3,947.9,1146.2,952.4,1150.5,956.6z"/>
					<path class="st1" d="M585.6,1469.4c-2.2-1.3-3.7-1.7-5.7-2.7c-0.1,5.4-0.7,10.3-5.1,12C585,1483.8,592.9,1485.4,585.6,1469.4z"
						/>
					<path class="st1" d="M1532.6,283.4c1,0.6,1.7,0.6,2.9,1.4C1533.4,282.2,1532.8,282.4,1532.6,283.4z"/>
					<path class="st1" d="M1816.3,363.4c-0.2,2.2-2.2,3.9-3.9,5.8C1814.4,369.6,1815.8,368.2,1816.3,363.4z"/>
					<path class="st1" d="M486.8,1560.4C485.1,1564,488.1,1562.9,486.8,1560.4L486.8,1560.4z"/>
					<path class="st1" d="M410.8,1499c-1.2-2.6-3-5.6-6.6-9.9C407.8,1493.7,409.8,1496.9,410.8,1499z"/>
					<path class="st1" d="M515.2,1330.7c0.1-0.1,0.2-0.1,0.3-0.1C511.6,1327.7,512.3,1328.2,515.2,1330.7z"/>
					<path class="st1" d="M475.4,1555.6c3,1.4,5.8,2.2,8.3,2.4C481.9,1557.1,479.3,1556.3,475.4,1555.6z"/>
					<path class="st1" d="M483.5,1563.9c-1.7,0-2.8,0.2-4,0.3C481.8,1567.6,483.7,1569.2,483.5,1563.9z"/>
					<path class="st1" d="M489.9,1556.1c-1.3,1.7-3.6,2.1-6.2,2c1.6,0.8,2.7,1.6,3.1,2.4C487.4,1559.5,488.2,1558.1,489.9,1556.1z"
						/>
					<path class="st1" d="M1346,528.4c0.7,0.4,1.2,0.6,2.1,1.2C1344.4,519.5,1344.2,521.8,1346,528.4z"/>
					<path class="st1" d="M657.5,1065.4c0,0.3,0.4,0.8,0.4,1.2c0.3,0.1,0.7,0.2,1,0.3L657.5,1065.4z"/>
					<path class="st1" d="M655.8,1043c15.4,26.6,10.5,25.9,3.1,23.8l48.8,50.4L655.8,1043z"/>
					<path class="st1" d="M1038.5,703.9l-21.2-10.6c-14.8-34.6-0.6-30.4-27.2-48.1c48.4,58.7-22.3,29.3,26.1,87.9l-15-8.2
						c1.8-0.6-0.9-4.2,0.9-4.7c-32.7-20,29,47.5,10.3,49.3c-7.8-1-17.8-6.9-20.9-16.2l3.2,22c-3.6,1.1-11.5-9.5-8-10.6l-9.8,16.4
						l-1.4-1.8c5.8,10.8,13.3,28.6,16.2,36.4c-10.6-5.3-3.5-7.6-10.5-14.1l4.3,20.5c-15.9-12.3-22-32.3-14.9-34.6
						c-56.5-51.6,6.1,20-38.1-0.6l0.9-13.5c-32.7-28.8-28.1-12.1-53.8-25.6c11.1,9,60.4,37.6,64.4,59.1c-6.1-2.4-10.9-1.8-5.4,13.6
						c-17.6-20.5-17.7-11.7-22.1-5.9l-22.9-27.5c0.8,12.9,13.1,26.4,20.1,41.6c-8.9,2.9-28.3-17-45-33.4
						c-14.2,4.7,36.2,27.6,28.1,43.4c-17.7-2.9-14.3,13.5-10.9,38.7c-14.1-4.1-13.2-17.6-22-23.5l13.1,26.4c-1.8,0.6-7.1-6.4-9.7-10
						c2.6,12.3,22.9,27.5,22,41.1c23.7,31.7-52.3-31.2-32,10.5c-8.8-5.9-13.2-17.6-22.9-27.6c6.9,32.8,3.4,25.2,19.1,63.9
						l-23.8-10.6c23.8,15.1,36.4,46.1,46.4,72c10.7,8,20,15,24.8,18l1.3,24.2c-5.2-3.3-12-13.6-19.9-26.6c1.2,2.9,2.3,5.7,3.5,8.3
						c-12.6-6.6-24-24.1-34.1-41.8c6,4.2,12.2,8.8,18.4,13.3c-11.4-18.9-24.4-39.4-38.6-54.9c2,3.8,2.9,7.7,2.6,10.5
						c-3.1-5.1-6.1-9.5-8.7-11.9c-2.8-2.5,1.1,4.5,5.2,13l-28.5-28.2l9.7,12.6l-30.9-6.4c15.6,39.5,44.9,92.3,39,119.1
						c-14.9-25.8-30.2-37.1-52.5-63.7c28.4,24,2.8-22.9,16.3-24.6c-7,0.9-16.8-12.5-19.4-17.9l6.3,38.6
						c-18.1-21.9-17.1-13.4-28.7-18.8c39.5,40,12.8,38.2,17.7,56.7c-12.6-14-23.6-29.9-13-33c-35.9-24.9,31.9,59.4,0.3,39.2
						c1.6-2,4.5-0.6-1-8.5c6.5,16.5-12.8,15.5-20.9,0.9l1.6-1.9c-16.7,5.6-38,32-8.9,69.8c-4.1-4.6-35.7-45-41.2-53l82,140.7
						c-24.6-32.8-95.4-100.4-100.2-126.8c-6.7-1.9-14.8-4-11.7,12.3c5.8,2.7,43.5,40.7,43.1,45.9c-37.2-28.2-21.1-14-55.6-35.6
						c8.7,4.1,47,55.7,40.9,58.2c-5.5-7.9-41.5-47.8-44.1-54.4l29,58c-4.4-11.2-34.2-41-48.4-52.3c9.2,8.3-11,7.9-10.1,15.4
						l14.5,6.8c-19.6,4.2,44.3,78.6,28.8,87.5c-6.8-11.3-48-64.3-60-64.5c17.9,27.2,87.1,129.7,91.4,158.6l-14.2-12.1l4.6,23.7
						c-25.9-41.7-76.5-132.8-93.7-170.4c-14.5-6.8-15.5-15.3-22-7.6c-13.9-10.9-12.9-23.4-11.4-26.1l-24.7,6.5
						c25.3,28,11.2,40.1,32.2,63.4l-6.3-45.9c25.2,27.9,58.4,90.6,41.7,96.2c-12.9-8.7-41.2-53-49.6-62.3
						c6.8,11.2,4.3,28.9-2.8,22.9L522,1171c-16.1-4.9,21.2,47.6-10.5,27.3c-4.4,0.6-40.1-29.5-26.1-12.2
						c32.6,28.7,119.8,128.9,137.7,156.1c-2.9-1.3-41.7-18.4-58.8-31.7c-26.6-21.6-45.1-67.1-67.9-85.6c6.5,8,12.1,19.8,13.7,23.9
						c-8.7-4.1-19.5-25.3-23-16.2c23.7,29.9-15.4,8.9,17.9,27.2c0.7,13.8-11.9-0.2-18.3,7.5c18.4,16.7,47.8,69.6,48.5,83.3
						c-5.9-7.7-15.6-16.1-20-19.9c-15.3,8.6-33.6,1.4-46.1,11.6c-7.1-6.1-20.3-9.5-28.5-24.2c2.6,6.6,9.4,17.8,6.3,21.8
						c-28.7-18.9,5.1-11.1-26.3-36.5c13.9,17.3,10.1,31.6,13.8,46.7c23.9,24.6,16.7-5.6,13-20.7c30.7,35.9,53.5,81.5,55,109
						c-2.5,17.6-24.2-19.5-21.6-12.8c-24.4,10,37.4,76.6-0.6,64.2c-25.8-17.5-39.2-45.3-54.7-60.6c0.9-15.7,25.1,3.7,29.9-2
						l-16.2-4.9c-3.9-9.9-3.3-20.3,5.4-16.3c-22.8-16.1-35.6,23.6-66.5,17.2c3.9,9.9,6.2,21.7,16.2,29.1l1.9-7.2
						c20.1,14.8,13.1,33,26.3,36.6c4.8,18.3,15.3,44.7-2.4,41.8l-24-24.7c6.7,7.5,19,10.6,14.7,0.6c6.2,14.7-43.7-23.8-18.5,13.8
						l21.6,12.8c4.9,18.5,20.9,52.8,6.1,51.2c25.6,22.7-0.7-4.5,30.6,20.9c-36.9-33.4,21.3-15.5-20.1-48.3
						c35.6,30.1,22.5,6.4,55.5,29.9c-7.6-8.4-16.7-14.2-6.5-15.6c-1.9-2.8-3.9-6.6-5-8.8c0.4,0.1,0.6,0.1,1,0.3
						c-0.4-0.2-0.8-0.5-1.2-0.7c-0.8-1.5-1-1.8-0.4-0.2c-4.8-2.4-9.9-5.9-14.5-10.2c-13.7-22.5-2.7-30.8-7.9-44
						c7.4,0.8,6.8,11.3,16.8,18.6l-7.8-19.8c16.9,18.7,37.5,22.9,37.9,42l9-6.2c14,6.6,24.3,5.2,21.5-6.4c7.4,0.8-8.3-29.5,1.1-11.7
						l2.8-22.9l4.2,4.7c14.8-8.5-0.9-54.1,43.2-32c0.2-8.5-0.5-18.2,11.4-18.9l15.5,15.3c0.6-10.5,30.7,2.4,18.3-16.8
						c44,39.4,35-13.1,51.4-13.5l-18.1-21.9c7.7-4.5,8.9-16.1,9.7-31.8l-16.8-18.6c-6.3-21.8,29.9-2.1,39.5-13.7
						c5.5,8,1,8.5-4.8,5.8c50.3,31.6,1.6-55.7,40.7-34.7c-2.9-9.5,1.3-9.1,7.6-6.1c-0.2,0.3-0.2,0.9,0.1,1.6c0.5,0,1-0.4,1.4-0.8
						c4.1,2.1,8.8,4.8,12.9,6.5c-5.2-3.5-9.7-6.3-12.3-7.2c2-2.4,3.5-7.8,2.9-15.6l19,19.2c0.1-0.5,0.3-0.7,0.3-1.3
						c9.9,4.6-5.5-12.1-20.6-25.9c-1.1-4.9-3-10.3-6-16.3c31.1,30.7-0.4-19,33.6,13.1c-12.4-19.2,6.5-27.9-22.6-65.7
						c4.2,4.6,7.1,6,5.5,7.9c7.4,0.8,14.8,1.6,9.6-11.6l23.9,24.7l-21.5-42.3c18.7,11.5,28.8,18.9,40.8,43.3
						c-14-41.4,0.1-20.2-15.5-59.8l13.9,17.3c3.2-3.9-10.1-31.6,4.1-19.6c35.8,24.8,45.4-31.2,92.5-19.9c-46.6-46,29.1,13.7-3-25.5
						c11.3,10.6,20,14.7,25.2,27.9c1.2-21,32.5,4.4,12.4-34.5c11.3,10.7,12.4,19.2,19.4,25.2c-1.3-3.3-5.2-13.2,1.9-7.2
						c7.1,6,6.8,11.2,9.4,17.8c9.6-11.6-20.2-48.7-48.4-83.4c19.4,11.2,20.4,6.5,5.4-19.3c11.5,9.4,24.7,18.2,21.1,28.2
						c5.3-1.7,38-4.3,15.1-31.8c7.1,5.8,7.2-2.7,5.6-6.7c10.2-5.9,13.1-4.1,19.6-14.1l-6.2-2.4c-24.6-35.7,1-13.5,4.6-23.4l2.7,3.5
						c36.3,10-2.8-17.3,36.1-3.8l-18.3-19.7c-36.1-45.2,36.2,13.9,31-10.7l-13.3-8.8c-7.8-19.3,65.1,47.7,74.8,48.9
						c4.4,2.9,3.5,7.6,4.4,11.7c35.3,14.6-21.2-28.2-16.6-42.8c14.1,12.9,29,38.7,37.9,35.7c13.3,8.9-20.9-63.2,11.8-43.3
						c-11.5-9.4-23-18.8-25.5-31.1c3.6-9.9,54.8,25.9,31.2-14.6c3.5,2.3,6.3,4.9,8.7,7.6c-2.4-13.6,4.5-29.9-8.5-51.6
						c65.2,66.3,3.9-62.7,59.4,2.4l13.5-17.5l5.3,7c14.2-4.7,4.6-23.4-5.1-42.2c6.2,2.3,9.6,9.9,12.3,13.5
						c26.6,0,25.7-4.1,10.9-47.5l19.4,20c-7-15.2,50.5,14.1,44.5-23.4c1.9,2.5,5.1,6.9,6.4,10.9c-4.2-39.2,90.6,23.8,31.1-58.3
						l-5-28.5c-19.6,6.4-26.3-35.2-43.2-42.9c1.8-9.4,34.5,10.6,30.9,20.5l-4.4-2.9c31.7,42.2,30.1-1.2,53,26.4
						c26.8-26.3,73.5-27.9,101.6-48.9l-29.7-28.5l10.8-6.2c8.6,5.2,24.1,21.6,16.4,25.9c18.6,14.7-1.5-24.3-7.1-31.2
						c23.8,1.5,26,40.6,30.6,38l3.4-7l-4.3-2.6c-6.5-16.5-17.6-30.3-8.3-35.6c10.4,1.9,19,17,22,16.5c1.9,2.2,3.4,2.7,3.8-1.7
						l14-7.4l-25.7-20.6c-5.2-16.6,12.1-8.1-17.1-31.4c44.6,36.2,56.9-22,73.2-12.8c-8-24.1-0.6-30,10.2-35.4
						c-6.6-3.2-31.5-29.7-21-32.9c46,59.4,35.2,12.7,76.5,48.5c-28.8-22.5,16.1-25.4-25.7-56.6c10.3-0.9,18.6,21,35,30.3
						c-3.6-35.1,45.9-14.3,58.3-37.9c-6.1-7.7-19-16.5-24.5-31.1l41.9,28.9c0.6-6.9-33.5-46.1-4.5-26c-6.3-5.5-15.9-13.8-15.4-18.3
						c68.1,4.9,49.9-94.3,145.9-57.8c-17.5-10.2-15.3-14.5-11.9-18.4c-5.5-1.3-15.8-18.5-24.9-28.3l39.8,14.8
						c-21.2-30.6,15.2-16.3-6.2-44.6l-0.8,9.1c-20.6-37.4-69.6-62.7-103.5-104.3c23.5,42.5-65.2-36.8-33.2,25.3
						c-9.8-6-8.9-15.1-18.5-23.3c11.9,20.1,11.3,26.9-2.3,25l-2.9-5c-15.7,20.8-38.7,10.7-70.3,17.8l18.8,18.8
						c-7,1.3-13.4-4.2-19.9-7.4c20.8,35.2,14.6-9.5,38.5,28.4c-41.3-35.7-33.5,27.5-77.5-15.5c-7.4,5.9,22.1,21.5,14.6,27.4
						l-12.7-11l12.1,17.8c-7,1.3-22.9-12.4-32.2-22.9c2.2,0.3,0.7-5.8,1.1-7.7c-18.8-9.6-12.9,19.8-19.1,16.7l13.5,1.9
						c-9.5,28.6-47.6,32.5-44.6,74.3l9.6,8.3c0.6,30-20.5-0.5-29.4,21.2l-1.4-2.8c4.9,12.2,4.8,20.6-0.5,23.2
						c-5.5-14.6-26.1-15.2-31.3-32c0.5,32.3,4.9,21.5,24.8,65.7l-15.9-13.7c8.7,17.3,14.8,25.1,10.4,35.9
						c-5.1-19.1-25.6-19.7-33.7-43.9c-46.2-20.3,5.1,56-45.7,12c29.7,50.2,35.1,11.9,38.9,25c15.8,11.2,21.6,38,12.6,38.1
						c-6.2,3.6-56.8-48.2-69.5-35.9c1.5-0.9-1.2-4.3,0.3-5.3c-14.5-6.9,3.1,23.5-18.5,10.6c19.1,29.4-9.3,5.3,18.5,39.8l5.6-18.3
						c0.6,14.8,27.8,59.8,0,50.4c-4.9-7.6-9.2-19.4-11.1-26.4c-11.8-7.1-0.8,12.1-13,4.9c-27.8-34.6,8.6-20.1-5.9-52.2
						c-15.8-11.2,6.8,36.5-20.7-3.2c34.3,51-18.2,5.4,3.1,48.6l-16.7-20.7c1.3,4.4,6.5,16.5,3.4,18.2l-17.6-30.3
						c11.8,28.6-30.8-7.5-27.5,10.7c14.2-13.2,24.1,21.5,42.9,30.9c5,42.6-55.6-43.9-67.7-16.8c0.3-5.2,20.7,3.3,24.4,16.3
						c-7.4-0.8-19.2-4.2-30.6-12.8c-9.9,15.7,19.8,19,24.7,36.3c-25.6-20.7,1.9,15.7,2.8,28.6l-17.6-20.5
						c-26.6,0,32.5,46.3,5.1,42.2l-18.5-33.5l-0.9,13.5l-18.5-24.6c7,24,0.7,21.6-12.6,21.7c14.2,12.9,30.9,38.1,24.6,44.6
						c-15.1-8.2-14.1-21.7-21.2-10.6c-8.8-14.7-20.2-32.9,0.2-17.5c-5.3-7.1-8.9-14.7-14.1-21.7c-17-9.8-15.3,7.5-18.6,10.7
						c2-0.4,4.6-0.6,7.9,1.6l10.4,40.4c-8.8-5.8-12.3-13.5-15.8-21.1c-0.9,4.6,5.2,15.8,2.5,21.1c-13.2-17.6-28.2-34.6-29-47.5
						l2.5,29.9c-7.1-6.5-23.9-14.1-27.4-21.7c-15.8-3.5,9.6,47.9-11.3,43.3c2.3,3.7,3.9,7.6,3.9,11.8c-12.4,4.1-38.1-9.4-29.4,22.8
						L1038,647c-2.7,14.1,40.6,30.5,36,54c-1.9,18.1-25.6-22.3-36.2-27.6c7.9,19.4,25.4,57.5-4.6,41.1
						C1031.4,706.2,1037.6,708.6,1038.5,703.9z M944.6,807.2c-1.6-6-8.9-22.8,2.9-12C965.3,820.7,953.8,811,944.6,807.2z
						 M826.8,993.4c-4.3-8.1,0.9-6.7,10.2-1.2C836.5,995.5,833.7,996.6,826.8,993.4z M503.1,1517.6c-0.2-0.4-0.3-0.7-0.6-1.2
						C513.9,1520.5,509.6,1518.7,503.1,1517.6z M486.1,1516.7c1.5,3.7,4,6.5,6.9,9c-3.8-5.8-2-7.9,1.7-8.5
						C489.4,1512.4,485,1509.7,486.1,1516.7z M1494,641.1l-6.4-3.8C1486.7,627.8,1490.1,634.2,1494,641.1z"/>
					<path class="st1" d="M820.9,949.8c3.5,3,7,6.7,10.4,10.4C829.2,956.1,825.8,952.1,820.9,949.8z"/>
					<path class="st1" d="M1094.8,637.1c0.2,0.1,0.3-0.1,0.5,0c-0.9-1.4-1.8-2.7-2.8-4L1094.8,637.1z"/>
					<path class="st1" d="M483.6,1217.5c4.5,1.3,8.8,4.1,12.8,7.4C492.2,1219.8,487.7,1216.3,483.6,1217.5z"/>
					<path class="st1" d="M465.8,1594.4l1.5-10.5c-2.1,3.5-6.9-0.1-11.2-2.1C460.3,1586.5,467.4,1592.5,465.8,1594.4z"/>
					<path class="st1" d="M304.7,1512.3c1.3,3.3-1.6,1.9-0.3,5.2l8.4,9.3C316,1522.9,312,1513,304.7,1512.3z"/>
					<path class="st1" d="M401.9,1531c-15.2-16.9-14-7.8-15.5-0.9c0.2-0.3,0.3-0.6,0.8-0.6C406.5,1554.7,404.2,1542.8,401.9,1531z"
						/>
					<path class="st1" d="M385.9,1531.5c-0.6,1.9-1.6,3.5-3.5,3.8C390.1,1545.4,385.6,1535.9,385.9,1531.5z"/>
					<path class="st1" d="M483.9,1538.4c-5.8-2.7,17.6,23.2,10.5,17.1C510.9,1579.4,485,1517.5,483.9,1538.4z"/>
					<polygon class="st1" points="349.8,1477 369.6,1497 357.2,1477.8 					"/>
					<path class="st1" d="M396.7,1464l-11.8-0.1c3.2,3.5,4.1,6.3,4.4,8.8C394,1469.9,402.2,1470.2,396.7,1464z"/>
					<path class="st1" d="M389.3,1472.8c-2.5,1.4-4.2,3.7-2.4,8.2C387.8,1479.7,389.7,1476.9,389.3,1472.8z"/>
					<polygon class="st1" points="353.6,1462.7 359.4,1465.4 365.5,1462.9 					"/>
					<path class="st1" d="M473,1405.9l2.2-12.4c-5.5-8-11.3-10.7-11.6-5.4C466.2,1394.6,465.8,1399.8,473,1405.9z"/>
					<path class="st1" d="M400.7,1366.6c5.8,2.7,10,7.4,17.1,13.4l-22.4-26.6L400.7,1366.6z"/>
					<path class="st1" d="M417,1342c-5.5-8-7.3-30.2-15.2-20.6C407.3,1329.4,405.1,1341.8,417,1342z"/>
					<polygon class="st1" points="557,1280.2 555.4,1282.1 592.8,1325.3 					"/>
					<path class="st1" d="M566.6,1092.5c-17.6-2.9,20.8,28.5,1.8,22.3c6.7,12,15.5,5,21,15.7C585.4,1115.2,593.4,1119,566.6,1092.5z
						"/>
					<path class="st1" d="M589.3,1130.6c0.6,2.4,1.5,5.3,2.9,8.9C591.5,1135.5,590.4,1132.8,589.3,1130.6z"/>
					<polygon class="st1" points="1856.8,369 1870.2,373.2 1854.1,361.7 					"/>
					<path class="st1" d="M1840.1,327.6l24.9,26.5l-18-27.9C1846.9,328.5,1846.4,333,1840.1,327.6z"/>
					<path class="st1" d="M881.3,764.9l5.3,7c7,6.4,8.8,5.9,12.4,4.7L881.3,764.9z"/>
					<polygon class="st1" points="975.4,720.2 973.6,720.8 997.5,743.7 					"/>
					<path class="st1" d="M1012.3,633.5c-3.5,1.2-1.8,9.4-5.4,10.6C1008.8,634.7,1039.7,664.1,1012.3,633.5z"/>
				</g>
			</g>
		</g>
	</g>
</g>
</svg>
